<?xml version="1.0" encoding="UTF-8" standalone="no"?><svg xmlns="http://www.w3.org/2000/svg" xmlns:xlink="http://www.w3.org/1999/xlink" contentStyleType="text/css" height="224px" preserveAspectRatio="none" style="width:244px;height:224px;background:#FFFFFF;" version="1.1" viewBox="0 0 244 224" width="244px" zoomAndPan="magnify"><defs/><g><!--MD5=[c1cb23d6e432624f6cb8edc9afe0423f]
class Processing--><g id="elem_Processing"><rect codeLine="10" fill="#FFFFFF" height="48" id="Processing" rx="2.5" ry="2.5" style="stroke:#000000;stroke-width:0.5;" width="200" x="13" y="30.7627"/><ellipse cx="71.75" cy="46.7627" fill="#A9DCDF" rx="11" ry="11" style="stroke:#181818;stroke-width:1.0;"/><path d="M71.8594,42.1064 L70.7031,47.1845 L73.0313,47.1845 L71.8594,42.1064 Z M70.375,39.872 L73.3594,39.872 L76.7188,52.2627 L74.2656,52.2627 L73.5,49.2002 L70.2188,49.2002 L69.4688,52.2627 L67.0313,52.2627 L70.375,39.872 Z " fill="#000000"/><text fill="#000000" font-family="sans-serif" font-size="14" font-style="italic" lengthAdjust="spacing" textLength="74" x="92.25" y="51.6093">Processing</text><line style="stroke:#000000;stroke-width:0.5;" x1="14" x2="212" y1="62.7627" y2="62.7627"/><line style="stroke:#000000;stroke-width:1.0;" x1="14" x2="212" y1="70.7627" y2="70.7627"/></g><!--MD5=[84ff7ea6cbe1073b072d3dffcd39692e]
class Verb_ing--><g id="elem_Verb_ing"><rect codeLine="14" fill="#FFFFFF" height="48" id="Verb_ing" rx="2.5" ry="2.5" style="stroke:#000000;stroke-width:0.5;" width="212" x="7" y="138.7627"/><ellipse cx="22" cy="154.7627" fill="#ADD1B2" rx="11" ry="11" style="stroke:#181818;stroke-width:1.0;"/><path d="M24.9688,160.4033 Q24.3906,160.7002 23.75,160.8408 Q23.1094,160.997 22.4063,160.997 Q19.9063,160.997 18.5781,159.3564 Q17.2656,157.7002 17.2656,154.5752 Q17.2656,151.4502 18.5781,149.7939 Q19.9063,148.1377 22.4063,148.1377 Q23.1094,148.1377 23.75,148.2939 Q24.4063,148.4502 24.9688,148.747 L24.9688,151.4658 Q24.3438,150.8877 23.75,150.622 Q23.1563,150.3408 22.5313,150.3408 Q21.1875,150.3408 20.5,151.4189 Q19.8125,152.4814 19.8125,154.5752 Q19.8125,156.6689 20.5,157.747 Q21.1875,158.8095 22.5313,158.8095 Q23.1563,158.8095 23.75,158.5439 Q24.3438,158.2627 24.9688,157.6845 L24.9688,160.4033 Z " fill="#000000"/><text fill="#000000" font-family="sans-serif" font-size="14" lengthAdjust="spacing" textLength="60" x="36" y="159.6093">Verb_ing</text><rect fill="#FFFFFF" height="15.9688" style="stroke:#000000;stroke-width:1.0;stroke-dasharray:2.0,2.0;" width="118" x="104" y="135.7627"/><text fill="#000000" font-family="sans-serif" font-size="12" font-style="italic" lengthAdjust="spacing" textLength="108" x="109" y="147.9013">Present Participle</text><line style="stroke:#000000;stroke-width:0.5;" x1="8" x2="218" y1="170.7627" y2="170.7627"/><line style="stroke:#000000;stroke-width:0.5;" x1="8" x2="218" y1="178.7627" y2="178.7627"/></g><!--MD5=[30c28498d11c6b6cae89e7b6ccf56923]
link Processing to Processing--><g id="link_Processing_Processing"><path codeLine="17" d="M113,30.3327 C113,21.0927 113,12.7627 113,12.7627 C113,12.7627 237,12.7627 237,12.7627 C237,12.7627 237,108.7627 237,108.7627 C237,108.7627 146.33,108.7627 146.33,108.7627 C146.33,108.7627 146.33,91.9227 146.33,91.9227 " fill="none" id="Processing-to-Processing" style="stroke:#000000;stroke-width:1.0;"/><polygon fill="none" points="146.33,78.9227,142.33,84.9227,146.33,90.9227,150.33,84.9227,146.33,78.9227" style="stroke:#000000;stroke-width:1.0;"/><text fill="#000000" font-family="sans-serif" font-size="13" lengthAdjust="spacing" textLength="23" x="87.1969" y="19.6328">0..*</text><text fill="#000000" font-family="sans-serif" font-size="13" lengthAdjust="spacing" textLength="8" x="145.4792" y="98.7229">1</text></g><!--MD5=[dbbfeafeb4235911a728dda71c62a3eb]
reverse link Processing to Verb_ing--><g id="link_Processing_Verb_ing"><path codeLine="18" d="M79.67,99.0027 C79.67,99.0027 79.67,138.6027 79.67,138.6027 " fill="none" id="Processing-backto-Verb_ing" style="stroke:#000000;stroke-width:1.0;"/><polygon fill="none" points="72.67,99.0027,79.67,79.0027,86.67,99.0027,72.67,99.0027" style="stroke:#000000;stroke-width:1.0;"/></g><rect fill="none" height="23.2813" style="stroke:none;stroke-width:1.0;" width="199" x="15.5" y="192.7627"/><text fill="#888888" font-family="sans-serif" font-size="10" font-weight="bold" lengthAdjust="spacing" textLength="71" x="15.5" y="202.0449">Processing()</text><text fill="#888888" font-family="sans-serif" font-size="10" lengthAdjust="spacing" textLength="122" x="89.5" y="202.0449">Class Diagram - Abstract</text><text fill="#888888" font-family="sans-serif" font-size="10" lengthAdjust="spacing" textLength="167" x="31.5" y="213.6855">(C) DSP-Crowd Electronics GmbH</text><!--MD5=[2a256ce86b6167f72575b16aeeb26626]
@startuml

skinparam linetype ortho
skinparam minClassWidth 200
skinparam class {
	BackgroundColor White
	ArrowColor Black
	BorderColor Black
}

abstract class Processing {
	- -
}

class Verb_ing < Present Participle > {
}

Processing "1" o-u- "0..*" Processing
Processing <|- - Verb_ing

footer **Processing()** Class Diagram - Abstract \n(C) DSP-Crowd Electronics GmbH

@enduml

PlantUML version 1.2022.7(Mon Aug 22 19:01:30 CEST 2022)
(GPL source distribution)
Java Runtime: OpenJDK Runtime Environment
JVM: OpenJDK 64-Bit Server VM
Default Encoding: UTF-8
Language: en
Country: US
--></g></svg>