<?xml version="1.0" encoding="us-ascii" standalone="no"?><svg xmlns="http://www.w3.org/2000/svg" xmlns:xlink="http://www.w3.org/1999/xlink" contentStyleType="text/css" height="337px" preserveAspectRatio="none" style="width:441px;height:337px;background:#FFFFFF;" version="1.1" viewBox="0 0 441 337" width="441px" zoomAndPan="magnify"><defs/><g><!--entity log--><g id="elem_log"><rect fill="#F1F1F1" height="46.2969" rx="2.5" ry="2.5" style="stroke:#181818;stroke-width:0.5;" width="65" x="196.5" y="42.72"/><path d="M218.1667,42.72 L218.1667,47.72 L211.1667,54.72 L196.5,54.72 " fill="none" style="stroke:#181818;stroke-width:0.5;"/><text fill="#000000" font-family="sans-serif" font-size="14" lengthAdjust="spacing" textLength="25" x="211.5" y="75.7151">Log</text></g><!--entity proc--><g id="elem_proc"><rect fill="#F1F1F1" height="46.2969" rx="2.5" ry="2.5" style="stroke:#181818;stroke-width:0.5;" width="127" x="165.5" y="148.72"/><path d="M207.8333,148.72 L207.8333,153.72 L200.8333,160.72 L165.5,160.72 " fill="none" style="stroke:#181818;stroke-width:0.5;"/><text fill="#000000" font-family="sans-serif" font-size="14" lengthAdjust="spacing" textLength="87" x="180.5" y="181.7151">Processing()</text></g><!--entity cmd--><g id="elem_cmd"><rect fill="#F1F1F1" height="46.2969" rx="2.5" ry="2.5" style="stroke:#181818;stroke-width:0.5;" width="193" x="7.5" y="254.72"/><path d="M71.8333,254.72 L71.8333,259.72 L64.8333,266.72 L7.5,266.72 " fill="none" style="stroke:#181818;stroke-width:0.5;"/><text fill="#000000" font-family="sans-serif" font-size="14" lengthAdjust="spacing" textLength="153" x="22.5" y="287.7151">SystemCommanding()</text></g><!--entity dbg--><g id="elem_dbg"><rect fill="#F1F1F1" height="46.2969" rx="2.5" ry="2.5" style="stroke:#181818;stroke-width:0.5;" width="178" x="236" y="254.72"/><path d="M295.3333,254.72 L295.3333,259.72 L288.3333,266.72 L236,266.72 " fill="none" style="stroke:#181818;stroke-width:0.5;"/><text fill="#000000" font-family="sans-serif" font-size="14" lengthAdjust="spacing" textLength="138" x="251" y="287.7151">SystemDebugging()</text></g><!--entity lst--><g id="elem_lst"><rect fill="#F1F1F1" height="46.2969" rx="2.5" ry="2.5" style="stroke:#181818;stroke-width:0.5;" width="138" x="297" y="42.72"/><path d="M343,42.72 L343,47.72 L336,54.72 L297,54.72 " fill="none" style="stroke:#181818;stroke-width:0.5;"/><text fill="#000000" font-family="sans-serif" font-size="14" lengthAdjust="spacing" textLength="98" x="312" y="75.7151">TcpListening()</text></g><!--entity trans--><g id="elem_trans"><rect fill="#F1F1F1" height="46.2969" rx="2.5" ry="2.5" style="stroke:#181818;stroke-width:0.5;" width="154" x="7" y="42.72"/><path d="M58.3333,42.72 L58.3333,47.72 L51.3333,54.72 L7,54.72 " fill="none" style="stroke:#181818;stroke-width:0.5;"/><text fill="#000000" font-family="sans-serif" font-size="14" lengthAdjust="spacing" textLength="114" x="22" y="75.7151">TcpTransfering()</text></g><!--link proc to cmd--><g id="link_proc_cmd"><path d="M202.49,194.78 C181.28,212.42 156.2822,233.2223 135.0822,250.8623 " fill="none" id="proc-to-cmd" style="stroke:#181818;stroke-width:1.0;"/><polygon fill="#181818" points="130.47,254.7,139.9467,252.0183,134.3135,251.5019,134.8298,245.8687,130.47,254.7" style="stroke:#181818;stroke-width:1.0;"/></g><!--link proc to dbg--><g id="link_proc_dbg"><path d="M249.36,194.78 C265.65,212.42 284.3207,232.6508 300.6007,250.2908 " fill="none" id="proc-to-dbg" style="stroke:#181818;stroke-width:1.0;"/><polygon fill="#181818" points="304.67,254.7,301.5056,245.3734,301.2789,251.0257,295.6266,250.799,304.67,254.7" style="stroke:#181818;stroke-width:1.0;"/></g><!--link cmd to dbg--><g id="link_cmd_dbg"><path d="M200.69,277.72 C212.34,277.72 218,277.72 229.65,277.72 " fill="none" id="cmd-to-dbg" style="stroke:#181818;stroke-width:1.0;"/><polygon fill="#181818" points="235.65,277.72,226.65,273.72,230.65,277.72,226.65,281.72,235.65,277.72" style="stroke:#181818;stroke-width:1.0;"/></g><!--reverse link trans to proc--><g id="link_trans_proc"><path d="M119.6266,92.2755 C144.2366,109.9155 173.7,131.06 198.29,148.7 " fill="none" id="trans-backto-proc" style="stroke:#181818;stroke-width:1.0;"/><polygon fill="#181818" points="114.75,88.78,119.7346,97.2743,118.8139,91.6929,124.3953,90.7721,114.75,88.78" style="stroke:#181818;stroke-width:1.0;"/></g><!--reverse link lst to proc--><g id="link_lst_proc"><path d="M332.1701,92.4066 C308.9201,110.0466 281.25,131.06 258.01,148.7 " fill="none" id="lst-backto-proc" style="stroke:#181818;stroke-width:1.0;"/><polygon fill="#181818" points="336.95,88.78,327.3624,91.0333,332.9667,91.8022,332.1978,97.4065,336.95,88.78" style="stroke:#181818;stroke-width:1.0;"/></g><!--link trans to lst--><g id="link_trans_lst"><path d="M122.05,42.64 C143.16,31.18 170.37,18.57 196.5,12.72 C224.69,6.41 233.4,6 261.5,12.72 C286.03,18.59 306.1438,28.1658 325.6938,39.6258 " fill="none" id="trans-to-lst" style="stroke:#181818;stroke-width:1.0;"/><polygon fill="#181818" points="330.87,42.66,325.1285,34.6578,326.5565,40.1315,321.0828,41.5594,330.87,42.66" style="stroke:#181818;stroke-width:1.0;"/></g><!--link lst to dbg--><g id="link_lst_dbg"><path d="M361.69,88.8 C353.82,129.13 338.3403,208.3913 330.4603,248.7313 " fill="none" id="lst-to-dbg" style="stroke:#181818;stroke-width:1.0;"/><polygon fill="#181818" points="329.31,254.62,334.9612,246.5538,330.2686,249.7127,327.1096,245.0201,329.31,254.62" style="stroke:#181818;stroke-width:1.0;"/></g><!--link trans to cmd--><g id="link_trans_cmd"><path d="M86.1,88.8 C89.94,129.13 97.48,208.3071 101.33,248.6471 " fill="none" id="trans-to-cmd" style="stroke:#181818;stroke-width:1.0;"/><polygon fill="#181818" points="101.9,254.62,105.0268,245.2807,101.425,249.6426,97.063,246.0407,101.9,254.62" style="stroke:#181818;stroke-width:1.0;"/></g><!--link log to proc--><g id="link_log_proc"><path d="M229,88.78 C229,106.42 229,125.06 229,142.7 " fill="none" id="log-to-proc" style="stroke:#181818;stroke-width:1.0;stroke-dasharray:1.0,3.0;"/><polygon fill="#181818" points="229,148.7,233,139.7,229,143.7,225,139.7,229,148.7" style="stroke:#181818;stroke-width:1.0;"/></g><text fill="#888888" font-family="sans-serif" font-size="10" font-weight="bold" lengthAdjust="spacing" textLength="71" x="127.5" y="315.2991">Processing()</text><text fill="#888888" font-family="sans-serif" font-size="10" lengthAdjust="spacing" textLength="95" x="201.5" y="315.2991">Core Dependencies</text><text fill="#888888" font-family="sans-serif" font-size="10" lengthAdjust="spacing" textLength="167" x="130" y="326.9397">(C) DSP-Crowd Electronics GmbH</text><!--SRC=[LP1DRiCW48Ntd6AKJHDBla8tTjGkieYKxDeiC8mfgfb1G5JbzWN7CSa6yRxtvaVp1l7NafT1EfWiORfv10xfXuKOCqGui04POMApWCqniC8OBPdjRbCydy73FDrYGjUnSv9qZIYdNnCz3bTZQa0FQ_-pyWURCrJTAQOdznmanH53zLCXGfH5e6tVvt6hAAqpWEMx6DSixsLLbp4pWqM8_3pgLgCq5_aUq7vfJWdrHMSw7q6Cp0a3DCtpaPe6EWu8FNeaZQGiHlYcRRU3_dHiky1_6lOJgXIOh8hmuOPFyGy0]--></g></svg>