<svg xmlns="http://www.w3.org/2000/svg" xmlns:xlink="http://www.w3.org/1999/xlink" contentStyleType="text/css" height="223px" preserveAspectRatio="none" style="width:376px;height:223px;background:#FFFFFF;" version="1.1" viewBox="0 0 376 223" width="376px" zoomAndPan="magnify"><defs/><g><!--entity pLife--><g id="elem_pLife"><rect fill="#F1F1F1" height="46.2969" rx="2.5" ry="2.5" style="stroke:#181818;stroke-width:0.5;" width="65.2314" x="129.5" y="7"/><rect fill="#F1F1F1" height="10" style="stroke:#181818;stroke-width:0.5;" width="15" x="174.7314" y="12"/><rect fill="#F1F1F1" height="2" style="stroke:#181818;stroke-width:0.5;" width="4" x="172.7314" y="14"/><rect fill="#F1F1F1" height="2" style="stroke:#181818;stroke-width:0.5;" width="4" x="172.7314" y="18"/><text fill="#000000" font-family="sans-serif" font-size="14" lengthAdjust="spacing" textLength="25.2314" x="144.5" y="39.9951">Life</text></g><!--entity sExist--><g id="elem_sExist"><path d="M6,17.5 C6,7.5 49.8003,7.5 49.8003,7.5 C49.8003,7.5 93.6006,7.5 93.6006,17.5 L93.6006,42.7969 C93.6006,52.7969 49.8003,52.7969 49.8003,52.7969 C49.8003,52.7969 6,52.7969 6,42.7969 L6,17.5 " fill="#F1F1F1" style="stroke:#181818;stroke-width:0.5;"/><path d="M6,17.5 C6,27.5 49.8003,27.5 49.8003,27.5 C49.8003,27.5 93.6006,27.5 93.6006,17.5 " fill="none" style="stroke:#181818;stroke-width:0.5;"/><text fill="#000000" font-family="sans-serif" font-size="14" lengthAdjust="spacing" textLength="67.6006" x="16" y="44.4951">Existence</text></g><!--entity pChange--><g id="elem_pChange"><rect fill="#F1F1F1" height="46.2969" rx="2.5" ry="2.5" style="stroke:#181818;stroke-width:0.5;" width="93.6006" x="258" y="7"/><path d="M289.2002,7 L289.2002,12 L282.2002,19 L258,19 " fill="none" style="stroke:#181818;stroke-width:0.5;"/><text fill="#000000" font-family="sans-serif" font-size="14" lengthAdjust="spacing" textLength="53.6006" x="273" y="39.9951">Change</text></g><!--entity pSys--><g id="elem_pSys"><rect fill="#F1F1F1" height="46.2969" rx="2.5" ry="2.5" style="stroke:#181818;stroke-width:0.5;" width="92.2061" x="116" y="130"/><rect fill="#F1F1F1" height="10" style="stroke:#181818;stroke-width:0.5;" width="15" x="188.2061" y="135"/><rect fill="#F1F1F1" height="2" style="stroke:#181818;stroke-width:0.5;" width="4" x="186.2061" y="137"/><rect fill="#F1F1F1" height="2" style="stroke:#181818;stroke-width:0.5;" width="4" x="186.2061" y="141"/><text fill="#000000" font-family="sans-serif" font-size="14" lengthAdjust="spacing" textLength="52.2061" x="131" y="162.9951">System</text></g><!--entity sState--><g id="elem_sState"><path d="M17,140.5 C17,130.5 49.1758,130.5 49.1758,130.5 C49.1758,130.5 81.3516,130.5 81.3516,140.5 L81.3516,165.7969 C81.3516,175.7969 49.1758,175.7969 49.1758,175.7969 C49.1758,175.7969 17,175.7969 17,165.7969 L17,140.5 " fill="#F1F1F1" style="stroke:#181818;stroke-width:0.5;"/><path d="M17,140.5 C17,150.5 49.1758,150.5 49.1758,150.5 C49.1758,150.5 81.3516,150.5 81.3516,140.5 " fill="none" style="stroke:#181818;stroke-width:0.5;"/><text fill="#000000" font-family="sans-serif" font-size="14" lengthAdjust="spacing" textLength="44.3516" x="27" y="167.4951">States</text></g><!--entity pProc--><g id="elem_pProc"><rect fill="#F1F1F1" height="46.2969" rx="2.5" ry="2.5" style="stroke:#181818;stroke-width:0.5;" width="109.5693" x="261" y="130"/><path d="M297.5231,130 L297.5231,135 L290.5231,142 L261,142 " fill="none" style="stroke:#181818;stroke-width:0.5;"/><text fill="#000000" font-family="sans-serif" font-size="14" lengthAdjust="spacing" textLength="69.5693" x="276" y="162.9951">Processes</text></g><!--link pLife to pLife--><g id="link_pLife_pLife"><path d="M194.64,19.29 C212.79,17.29 229.5,20.86 229.5,30 C229.5,39.14 218.7539,43.3672 200.6039,41.3672 " fill="none" id="pLife-to-pLife" style="stroke:#181818;stroke-width:1.0;"/><polygon fill="#181818" points="194.64,40.71,203.1477,45.6717,199.6099,41.2576,204.024,37.7198,194.64,40.71" style="stroke:#181818;stroke-width:1.0;"/></g><!--link sExist to pLife--><g id="link_sExist_pLife"><path d="M94.19,30 C105.93,30 111.67,30 123.42,30 " fill="none" id="sExist-to-pLife" style="stroke:#181818;stroke-width:1.0;"/><polygon fill="#181818" points="129.42,30,120.42,26,124.42,30,120.42,34,129.42,30" style="stroke:#181818;stroke-width:1.0;"/></g><!--reverse link pLife to pChange--><g id="link_pLife_pChange"><path d="M200.68,30 C221.65,30 236.62,30 257.6,30 " fill="none" id="pLife-backto-pChange" style="stroke:#181818;stroke-width:1.0;"/><polygon fill="#181818" points="194.68,30,203.68,34,199.68,30,203.68,26,194.68,30" style="stroke:#181818;stroke-width:1.0;"/></g><!--link pSys to pSys--><g id="link_pSys_pSys"><path d="M208.21,141.83 C227.08,141.13 243,144.86 243,153 C243,161.14 233.0759,165.0924 214.2059,164.3924 " fill="none" id="pSys-to-pSys" style="stroke:#181818;stroke-width:1.0;"/><polygon fill="#181818" points="208.21,164.17,217.0555,168.5009,213.2066,164.3554,217.3521,160.5064,208.21,164.17" style="stroke:#181818;stroke-width:1.0;"/></g><!--link sState to pSys--><g id="link_sState_pSys"><path d="M81.22,153 C92.79,153 98.36,153 109.93,153 " fill="none" id="sState-to-pSys" style="stroke:#181818;stroke-width:1.0;"/><polygon fill="#181818" points="115.93,153,106.93,149,110.93,153,106.93,157,115.93,153" style="stroke:#181818;stroke-width:1.0;"/></g><!--reverse link pSys to pProc--><g id="link_pSys_pProc"><path d="M214.02,153 C231.59,153 243.17,153 260.74,153 " fill="none" id="pSys-backto-pProc" style="stroke:#181818;stroke-width:1.0;"/><polygon fill="#181818" points="208.02,153,217.02,157,213.02,153,217.02,149,208.02,153" style="stroke:#181818;stroke-width:1.0;"/></g><!--link sExist to sState--><g id="link_sExist_sState"><path d="M49.82,52.63 C49.64,74.52 49.4092,102.1802 49.2292,124.1502 " fill="none" id="sExist-to-sState" style="stroke:#181818;stroke-width:1.0;stroke-dasharray:7.0,7.0;"/><polygon fill="#181818" points="49.18,130.15,53.2536,121.1831,49.221,125.1502,45.2539,121.1175,49.18,130.15" style="stroke:#181818;stroke-width:1.0;"/></g><!--link pLife to pSys--><g id="link_pLife_pSys"><path d="M162,53.19 C162,75.03 162,102.16 162,123.95 " fill="none" id="pLife-to-pSys" style="stroke:#181818;stroke-width:1.0;stroke-dasharray:7.0,7.0;"/><polygon fill="#181818" points="162,129.95,166,120.95,162,124.95,158,120.95,162,129.95" style="stroke:#181818;stroke-width:1.0;"/><text fill="#000000" font-family="sans-serif" font-size="13" lengthAdjust="spacing" textLength="71.957" x="163" y="96.0669">Instance of</text></g><!--link pChange to pProc--><g id="link_pChange_pProc"><path d="M307.02,53.19 C309,75.03 311.4643,102.1849 313.4543,123.9749 " fill="none" id="pChange-to-pProc" style="stroke:#181818;stroke-width:1.0;stroke-dasharray:7.0,7.0;"/><polygon fill="#181818" points="314,129.95,317.1649,120.6235,313.5453,124.9707,309.198,121.3511,314,129.95" style="stroke:#181818;stroke-width:1.0;"/></g><text fill="#888888" font-family="sans-serif" font-size="10" font-weight="bold" lengthAdjust="spacing" textLength="70.5908" x="106.1943" y="201.0791">Processing()</text><text fill="#888888" font-family="sans-serif" font-size="10" lengthAdjust="spacing" textLength="76.4111" x="179.9639" y="201.0791">Life - Definition</text><text fill="#888888" font-family="sans-serif" font-size="10" lengthAdjust="spacing" textLength="165.8252" x="98.3721" y="212.7197">(C) DSP-Crowd Electronics GmbH</text><!--SRC=[LL3BRiCW4Bpp5IjVabWY7r1LkJXHMwc7IBxsGiYIejWB0gJKVrzWSH-tdPsT1smWtYrv5TGCaoLCYqVmRbeA44AxsJj2Ij2zMuCTg0Y-JEAgahgeYD2TlcnCI9hPMA4msJ1pmwUYMvFn_CzpNB9oPZhFVqp7f196TgppwdWEJcECZVC52b4hWPI7LexnivpascVT1FbRf4Iog6HNn18ER8kYu1IsWlt-y7DINSkY7Z_16yMaybU0CwBbCCqEnhc40Vg-lSBIRRlhU-3wS4HZoIRhw8EsmmwEuraEmJskS9fGf-38wWWly-LLV0C0]--></g></svg>