<?xml version="1.0" encoding="UTF-8" standalone="no"?><svg xmlns="http://www.w3.org/2000/svg" xmlns:xlink="http://www.w3.org/1999/xlink" contentStyleType="text/css" height="371px" preserveAspectRatio="none" style="width:830px;height:371px;background:#FFFFFF;" version="1.1" viewBox="0 0 830 371" width="830px" zoomAndPan="magnify"><defs/><g><!--MD5=[6a9dabe7ad7d91e46e95264c56fb8cca]
class proc--><g id="elem_proc"><rect codeLine="15" fill="#FFFFFF" height="80.5938" id="proc" rx="2.5" ry="2.5" style="stroke:#000000;stroke-width:0.5;" width="180" x="267" y="30.6228"/><ellipse cx="326.25" cy="46.6228" fill="#A9DCDF" rx="11" ry="11" style="stroke:#181818;stroke-width:1.0;"/><path d="M326.3594,41.9666 L325.2031,47.0447 L327.5313,47.0447 L326.3594,41.9666 Z M324.875,39.7322 L327.8594,39.7322 L331.2188,52.1228 L328.7656,52.1228 L328,49.0603 L324.7188,49.0603 L323.9688,52.1228 L321.5313,52.1228 L324.875,39.7322 Z " fill="#000000"/><text fill="#000000" font-family="sans-serif" font-size="14" font-style="italic" lengthAdjust="spacing" textLength="53" x="346.75" y="51.4695">Process</text><line style="stroke:#000000;stroke-width:0.5;" x1="268" x2="446" y1="62.6228" y2="62.6228"/><text fill="#000000" font-family="sans-serif" font-size="14" lengthAdjust="spacing" textLength="66" x="273" y="79.6179">y = p(x, t)</text><line style="stroke:#000000;stroke-width:1.0;" x1="268" x2="446" y1="86.9197" y2="86.9197"/><text fill="#000000" font-family="sans-serif" font-size="14" lengthAdjust="spacing" textLength="37" x="273" y="103.9148">HEAP</text></g><!--MD5=[f19d1eb6fccfbe0c167bc1d116e06d92]
class func--><g id="elem_func"><rect codeLine="21" fill="#FFFFFF" height="80.5938" id="func" rx="2.5" ry="2.5" style="stroke:#000000;stroke-width:0.5;" width="180" x="267" y="231.6228"/><ellipse cx="322.75" cy="247.6228" fill="#A9DCDF" rx="11" ry="11" style="stroke:#181818;stroke-width:1.0;"/><path d="M322.8594,242.9666 L321.7031,248.0447 L324.0313,248.0447 L322.8594,242.9666 Z M321.375,240.7322 L324.3594,240.7322 L327.7188,253.1228 L325.2656,253.1228 L324.5,250.0603 L321.2188,250.0603 L320.4688,253.1228 L318.0313,253.1228 L321.375,240.7322 Z " fill="#000000"/><text fill="#000000" font-family="sans-serif" font-size="14" font-style="italic" lengthAdjust="spacing" textLength="60" x="343.25" y="252.4695">Function</text><line style="stroke:#000000;stroke-width:0.5;" x1="268" x2="446" y1="263.6228" y2="263.6228"/><text fill="#000000" font-family="sans-serif" font-size="14" lengthAdjust="spacing" textLength="48" x="273" y="280.6179">y = f(x)</text><line style="stroke:#000000;stroke-width:1.0;" x1="268" x2="446" y1="287.9197" y2="287.9197"/><text fill="#000000" font-family="sans-serif" font-size="14" lengthAdjust="spacing" textLength="46" x="273" y="304.9148">STACK</text></g><!--MD5=[1b31271c7496f1793dbf0b219b65afa6]
class proc1--><g id="elem_proc1"><rect codeLine="27" fill="#FFFFFF" height="48" id="proc1" rx="2.5" ry="2.5" style="stroke:#000000;stroke-width:0.5;" width="180" x="7" y="47.1228"/><ellipse cx="55.25" cy="63.1228" fill="#ADD1B2" rx="11" ry="11" style="stroke:#181818;stroke-width:1.0;"/><path d="M58.2188,68.7634 Q57.6406,69.0603 57,69.2009 Q56.3594,69.3572 55.6563,69.3572 Q53.1563,69.3572 51.8281,67.7166 Q50.5156,66.0603 50.5156,62.9353 Q50.5156,59.8103 51.8281,58.1541 Q53.1563,56.4978 55.6563,56.4978 Q56.3594,56.4978 57,56.6541 Q57.6563,56.8103 58.2188,57.1072 L58.2188,59.8259 Q57.5938,59.2478 57,58.9822 Q56.4063,58.7009 55.7813,58.7009 Q54.4375,58.7009 53.75,59.7791 Q53.0625,60.8416 53.0625,62.9353 Q53.0625,65.0291 53.75,66.1072 Q54.4375,67.1697 55.7813,67.1697 Q56.4063,67.1697 57,66.9041 Q57.5938,66.6228 58.2188,66.0447 L58.2188,68.7634 Z " fill="#000000"/><text fill="#000000" font-family="sans-serif" font-size="14" lengthAdjust="spacing" textLength="75" x="75.75" y="67.9695">y = p1(x, t)</text><line style="stroke:#000000;stroke-width:0.5;" x1="8" x2="186" y1="79.1228" y2="79.1228"/><line style="stroke:#000000;stroke-width:0.5;" x1="8" x2="186" y1="87.1228" y2="87.1228"/></g><!--MD5=[2ad2613a6508e90e2cfe148b6429c194]
class proc2--><g id="elem_proc2"><rect codeLine="28" fill="#FFFFFF" height="48" id="proc2" rx="2.5" ry="2.5" style="stroke:#000000;stroke-width:0.5;" width="180" x="545" y="47.1228"/><ellipse cx="593.25" cy="63.1228" fill="#ADD1B2" rx="11" ry="11" style="stroke:#181818;stroke-width:1.0;"/><path d="M596.2188,68.7634 Q595.6406,69.0603 595,69.2009 Q594.3594,69.3572 593.6563,69.3572 Q591.1563,69.3572 589.8281,67.7166 Q588.5156,66.0603 588.5156,62.9353 Q588.5156,59.8103 589.8281,58.1541 Q591.1563,56.4978 593.6563,56.4978 Q594.3594,56.4978 595,56.6541 Q595.6563,56.8103 596.2188,57.1072 L596.2188,59.8259 Q595.5938,59.2478 595,58.9822 Q594.4063,58.7009 593.7813,58.7009 Q592.4375,58.7009 591.75,59.7791 Q591.0625,60.8416 591.0625,62.9353 Q591.0625,65.0291 591.75,66.1072 Q592.4375,67.1697 593.7813,67.1697 Q594.4063,67.1697 595,66.9041 Q595.5938,66.6228 596.2188,66.0447 L596.2188,68.7634 Z " fill="#000000"/><text fill="#000000" font-family="sans-serif" font-size="14" lengthAdjust="spacing" textLength="75" x="613.75" y="67.9695">y = p2(x, t)</text><line style="stroke:#000000;stroke-width:0.5;" x1="546" x2="724" y1="79.1228" y2="79.1228"/><line style="stroke:#000000;stroke-width:0.5;" x1="546" x2="724" y1="87.1228" y2="87.1228"/></g><!--MD5=[cf863be9d7619689d6bc0c55198650d6]
class func1--><g id="elem_func1"><rect codeLine="30" fill="#FFFFFF" height="48" id="func1" rx="2.5" ry="2.5" style="stroke:#000000;stroke-width:0.5;" width="180" x="7" y="248.1228"/><ellipse cx="64.25" cy="264.1228" fill="#ADD1B2" rx="11" ry="11" style="stroke:#181818;stroke-width:1.0;"/><path d="M67.2188,269.7634 Q66.6406,270.0603 66,270.2009 Q65.3594,270.3572 64.6563,270.3572 Q62.1563,270.3572 60.8281,268.7166 Q59.5156,267.0603 59.5156,263.9353 Q59.5156,260.8103 60.8281,259.1541 Q62.1563,257.4978 64.6563,257.4978 Q65.3594,257.4978 66,257.6541 Q66.6563,257.8103 67.2188,258.1072 L67.2188,260.8259 Q66.5938,260.2478 66,259.9822 Q65.4063,259.7009 64.7813,259.7009 Q63.4375,259.7009 62.75,260.7791 Q62.0625,261.8416 62.0625,263.9353 Q62.0625,266.0291 62.75,267.1072 Q63.4375,268.1697 64.7813,268.1697 Q65.4063,268.1697 66,267.9041 Q66.5938,267.6228 67.2188,267.0447 L67.2188,269.7634 Z " fill="#000000"/><text fill="#000000" font-family="sans-serif" font-size="14" lengthAdjust="spacing" textLength="57" x="84.75" y="268.9695">y = f1(x)</text><line style="stroke:#000000;stroke-width:0.5;" x1="8" x2="186" y1="280.1228" y2="280.1228"/><line style="stroke:#000000;stroke-width:0.5;" x1="8" x2="186" y1="288.1228" y2="288.1228"/></g><!--MD5=[89835a4e6a1b4227114a85e10a3e5164]
class func2--><g id="elem_func2"><rect codeLine="31" fill="#FFFFFF" height="48" id="func2" rx="2.5" ry="2.5" style="stroke:#000000;stroke-width:0.5;" width="180" x="545" y="248.1228"/><ellipse cx="602.25" cy="264.1228" fill="#ADD1B2" rx="11" ry="11" style="stroke:#181818;stroke-width:1.0;"/><path d="M605.2188,269.7634 Q604.6406,270.0603 604,270.2009 Q603.3594,270.3572 602.6563,270.3572 Q600.1563,270.3572 598.8281,268.7166 Q597.5156,267.0603 597.5156,263.9353 Q597.5156,260.8103 598.8281,259.1541 Q600.1563,257.4978 602.6563,257.4978 Q603.3594,257.4978 604,257.6541 Q604.6563,257.8103 605.2188,258.1072 L605.2188,260.8259 Q604.5938,260.2478 604,259.9822 Q603.4063,259.7009 602.7813,259.7009 Q601.4375,259.7009 600.75,260.7791 Q600.0625,261.8416 600.0625,263.9353 Q600.0625,266.0291 600.75,267.1072 Q601.4375,268.1697 602.7813,268.1697 Q603.4063,268.1697 604,267.9041 Q604.5938,267.6228 605.2188,267.0447 L605.2188,269.7634 Z " fill="#000000"/><text fill="#000000" font-family="sans-serif" font-size="14" lengthAdjust="spacing" textLength="57" x="622.75" y="268.9695">y = f2(x)</text><line style="stroke:#000000;stroke-width:0.5;" x1="546" x2="724" y1="280.1228" y2="280.1228"/><line style="stroke:#000000;stroke-width:0.5;" x1="546" x2="724" y1="288.1228" y2="288.1228"/></g><!--MD5=[321182c245667d2a965a3e1c3b39eb19]
link proc to proc--><g id="link_proc_proc"><path codeLine="33" d="M357,30.4928 C357,20.5128 357,12.6228 357,12.6228 C357,12.6228 213.67,12.6228 213.67,12.6228 C213.67,12.6228 213.67,151.6228 213.67,151.6228 C213.67,151.6228 312,151.6228 312,151.6228 C312,151.6228 312,124.8428 312,124.8428 " fill="none" id="proc-to-proc" style="stroke:#000000;stroke-width:1.0;"/><polygon fill="none" points="312,111.8428,308,117.8428,312,123.8428,316,117.8428,312,111.8428" style="stroke:#000000;stroke-width:1.0;"/><text fill="#000000" font-family="sans-serif" font-size="13" lengthAdjust="spacing" textLength="62" x="201.17" y="82.1397">Recursion</text><text fill="#000000" font-family="sans-serif" font-size="13" lengthAdjust="spacing" textLength="48" x="208.17" y="97.2725">Order 1</text><text fill="#000000" font-family="sans-serif" font-size="13" lengthAdjust="spacing" textLength="23" x="332.0953" y="19.6328">0..*</text><text fill="#000000" font-family="sans-serif" font-size="13" lengthAdjust="spacing" textLength="8" x="296.4969" y="131.3347">1</text></g><!--MD5=[937359c5cf04167a9c535819303fc4f1]
link func to func--><g id="link_func_func"><path codeLine="34" d="M357,231.4028 C357,211.4328 357,191.6228 357,191.6228 C357,191.6228 240.33,191.6228 240.33,191.6228 C240.33,191.6228 240.33,330.6228 240.33,330.6228 C240.33,330.6228 357,330.6228 357,330.6228 C357,330.6228 357,325.7528 357,325.7528 " fill="none" id="func-to-func" style="stroke:#000000;stroke-width:1.0;"/><polygon fill="none" points="357,312.7528,353,318.7528,357,324.7528,361,318.7528,357,312.7528" style="stroke:#000000;stroke-width:1.0;"/><text fill="#000000" font-family="sans-serif" font-size="13" lengthAdjust="spacing" textLength="62" x="172.33" y="219.7397">Recursion</text><text fill="#000000" font-family="sans-serif" font-size="13" lengthAdjust="spacing" textLength="48" x="179.33" y="234.8725">Order 1</text><text fill="#000000" font-family="sans-serif" font-size="13" lengthAdjust="spacing" textLength="23" x="332.0953" y="220.5279">0..*</text><text fill="#000000" font-family="sans-serif" font-size="13" lengthAdjust="spacing" textLength="8" x="348.3875" y="332.2309">1</text></g><!--MD5=[7c0b15c5ccdc8381519d78cc6a7cb0d7]
reverse link proc to func--><g id="link_proc_func"><path codeLine="35" d="M402,124.8028 C402,124.8028 402,231.5128 402,231.5128 " fill="none" id="proc-backto-func" style="stroke:#000000;stroke-width:1.0;"/><polygon fill="none" points="402,111.8028,398,117.8028,402,123.8028,406,117.8028,402,111.8028" style="stroke:#000000;stroke-width:1.0;"/><text fill="#000000" font-family="sans-serif" font-size="13" lengthAdjust="spacing" textLength="8" x="400.2781" y="131.2885">1</text><text fill="#000000" font-family="sans-serif" font-size="13" lengthAdjust="spacing" textLength="23" x="384.5484" y="220.6561">0..*</text></g><!--MD5=[90445542e79d1907c78d290cb107b5e9]
link proc1 to proc--><g id="link_proc1_proc"><path codeLine="36" d="M187.21,71.6228 C187.21,71.6228 246.95,71.6228 246.95,71.6228 " fill="none" id="proc1-to-proc" style="stroke:#000000;stroke-width:1.0;"/><polygon fill="none" points="246.95,64.6228,266.95,71.6228,246.95,78.6228,246.95,64.6228" style="stroke:#000000;stroke-width:1.0;"/></g><!--MD5=[bc0c050b670a7cdb11905162d2ff6cff]
reverse link proc to proc2--><g id="link_proc_proc2"><path codeLine="37" d="M467.26,71.6228 C467.26,71.6228 544.72,71.6228 544.72,71.6228 " fill="none" id="proc-backto-proc2" style="stroke:#000000;stroke-width:1.0;"/><polygon fill="none" points="467.26,78.6228,447.26,71.6228,467.26,64.6228,467.26,78.6228" style="stroke:#000000;stroke-width:1.0;"/></g><!--MD5=[9aff9a3c8fdef425c95ad97d40c0d609]
link func1 to func--><g id="link_func1_func"><path codeLine="38" d="M187.21,272.6228 C187.21,272.6228 246.95,272.6228 246.95,272.6228 " fill="none" id="func1-to-func" style="stroke:#000000;stroke-width:1.0;"/><polygon fill="none" points="246.95,265.6228,266.95,272.6228,246.95,279.6228,246.95,265.6228" style="stroke:#000000;stroke-width:1.0;"/></g><!--MD5=[3582cb5730ad0f70e9cb3973bc5c7d3f]
reverse link func to func2--><g id="link_func_func2"><path codeLine="39" d="M467.26,272.6228 C467.26,272.6228 544.72,272.6228 544.72,272.6228 " fill="none" id="func-backto-func2" style="stroke:#000000;stroke-width:1.0;"/><polygon fill="none" points="467.26,279.6228,447.26,272.6228,467.26,265.6228,467.26,279.6228" style="stroke:#000000;stroke-width:1.0;"/></g><!--MD5=[6b636e05f5f46ce37120ee69bd9fed19]
link proc2 to proc2--><g id="link_proc2_proc2"><path codeLine="40" d="M635,46.9328 C635,42.7028 635,39.6228 635,39.6228 C635,39.6228 737,39.6228 737,39.6228 C737,39.6228 737,103.6228 737,103.6228 C737,103.6228 605,103.6228 605,103.6228 C605,103.6228 605,102.8028 605,102.8028 " fill="none" id="proc2-to-proc2" style="stroke:#000000;stroke-width:1.0;"/><polygon fill="none" points="605,95.4228,601,101.4228,605,107.4228,609,101.4228,605,95.4228" style="stroke:#000000;stroke-width:1.0;"/><text fill="#000000" font-family="sans-serif" font-size="13" lengthAdjust="spacing" textLength="62" x="743" y="59.4497">Recursion</text><text fill="#000000" font-family="sans-serif" font-size="13" lengthAdjust="spacing" textLength="48" x="750" y="74.5825">Order 2</text><text fill="#000000" font-family="sans-serif" font-size="13" lengthAdjust="spacing" textLength="23" x="609.0531" y="35.8962">0..*</text><text fill="#000000" font-family="sans-serif" font-size="13" lengthAdjust="spacing" textLength="8" x="588.7125" y="115.2571">1</text></g><!--MD5=[d2bcdce597cf95ac5b24c501f94cbeeb]
link func2 to func2--><g id="link_func2_func2"><path codeLine="41" d="M665,247.9328 C665,243.7028 665,240.6228 665,240.6228 C665,240.6228 749,240.6228 749,240.6228 C749,240.6228 749,304.6228 749,304.6228 C749,304.6228 635,304.6228 635,304.6228 C635,304.6228 635,303.8028 635,303.8028 " fill="none" id="func2-to-func2" style="stroke:#000000;stroke-width:1.0;"/><polygon fill="none" points="635,296.4228,631,302.4228,635,308.4228,639,302.4228,635,296.4228" style="stroke:#000000;stroke-width:1.0;"/><text fill="#000000" font-family="sans-serif" font-size="13" lengthAdjust="spacing" textLength="62" x="755" y="260.4497">Recursion</text><text fill="#000000" font-family="sans-serif" font-size="13" lengthAdjust="spacing" textLength="48" x="762" y="275.5825">Order 2</text><text fill="#000000" font-family="sans-serif" font-size="13" lengthAdjust="spacing" textLength="23" x="646.7406" y="236.8962">0..*</text><text fill="#000000" font-family="sans-serif" font-size="13" lengthAdjust="spacing" textLength="8" x="626.025" y="316.2571">1</text></g><rect fill="none" height="23.2813" style="stroke:none;stroke-width:1.0;" width="167" x="324.5" y="339.7309"/><text fill="#888888" font-family="sans-serif" font-size="10" font-weight="bold" lengthAdjust="spacing" textLength="56" x="360.5" y="349.0131">Recursion</text><text fill="#888888" font-family="sans-serif" font-size="10" lengthAdjust="spacing" textLength="33" x="419.5" y="349.0131">Orders</text><text fill="#888888" font-family="sans-serif" font-size="10" lengthAdjust="spacing" textLength="167" x="324.5" y="360.6537">(C) DSP-Crowd Electronics GmbH</text><!--MD5=[55ac5bfd43b1dc0a86ebeecd3edd1e21]
@startuml

skinparam linetype ortho
skinparam minClassWidth 180

skinparam nodesep 80
skinparam ranksep 120

skinparam class {
	BackgroundColor White
	ArrowColor Black
	BorderColor Black
}

abstract class "Process" as proc {
  y = p(x, t)
  - -
  HEAP
}

abstract class "Function" as func {
  y = f(x)
  - -
  STACK
}

class "y = p1(x, t)" as proc1 {}
class "y = p2(x, t)" as proc2 {}

class "y = f1(x)" as func1 {}
class "y = f2(x)" as func2 {}

proc "1" o-u- "0..*" proc : "Recursion\nOrder 1"
func "1" o-u- "0..*" func : "Recursion\nOrder 1"
proc "1" o-d- "0..*" func
proc <|-l- proc1
proc <|-r- proc2
func <|-l- func1
func <|-r- func2
proc2 "1" o-u- "0..*" proc2 : "Recursion\nOrder 2"
func2 "1" o-u- "0..*" func2 : "Recursion\nOrder 2"

footer **Recursion** Orders \n(C) DSP-Crowd Electronics GmbH

@enduml

PlantUML version 1.2022.7(Mon Aug 22 19:01:30 CEST 2022)
(GPL source distribution)
Java Runtime: OpenJDK Runtime Environment
JVM: OpenJDK 64-Bit Server VM
Default Encoding: UTF-8
Language: en
Country: US
--></g></svg>