<?xml version="1.0" encoding="UTF-8" standalone="no"?><svg xmlns="http://www.w3.org/2000/svg" xmlns:xlink="http://www.w3.org/1999/xlink" contentStyleType="text/css" height="496px" preserveAspectRatio="none" style="width:1003px;height:496px;background:#FFFFFF;" version="1.1" viewBox="0 0 1003 496" width="1003px" zoomAndPan="magnify"><defs/><g><!--MD5=[6a9dabe7ad7d91e46e95264c56fb8cca]
class proc--><g id="elem_proc"><rect codeLine="15" fill="#FFFFFF" height="80.5938" id="proc" rx="2.5" ry="2.5" style="stroke:#000000;stroke-width:0.5;" width="180" x="402" y="7"/><ellipse cx="461.25" cy="23" fill="#A9DCDF" rx="11" ry="11" style="stroke:#181818;stroke-width:1.0;"/><path d="M461.3594,18.3438 L460.2031,23.4219 L462.5313,23.4219 L461.3594,18.3438 Z M459.875,16.1094 L462.8594,16.1094 L466.2188,28.5 L463.7656,28.5 L463,25.4375 L459.7188,25.4375 L458.9688,28.5 L456.5313,28.5 L459.875,16.1094 Z " fill="#000000"/><text fill="#000000" font-family="sans-serif" font-size="14" font-style="italic" lengthAdjust="spacing" textLength="53" x="481.75" y="27.8467">Process</text><line style="stroke:#000000;stroke-width:0.5;" x1="403" x2="581" y1="39" y2="39"/><text fill="#000000" font-family="sans-serif" font-size="14" lengthAdjust="spacing" textLength="66" x="408" y="55.9951">y = p(x, t)</text><line style="stroke:#000000;stroke-width:1.0;" x1="403" x2="581" y1="63.2969" y2="63.2969"/><text fill="#000000" font-family="sans-serif" font-size="14" lengthAdjust="spacing" textLength="37" x="408" y="80.292">HEAP</text></g><!--MD5=[f19d1eb6fccfbe0c167bc1d116e06d92]
class func--><g id="elem_func"><rect codeLine="21" fill="#FFFFFF" height="80.5938" id="func" rx="2.5" ry="2.5" style="stroke:#000000;stroke-width:0.5;" width="180" x="50" y="209"/><ellipse cx="105.75" cy="225" fill="#A9DCDF" rx="11" ry="11" style="stroke:#181818;stroke-width:1.0;"/><path d="M105.8594,220.3438 L104.7031,225.4219 L107.0313,225.4219 L105.8594,220.3438 Z M104.375,218.1094 L107.3594,218.1094 L110.7188,230.5 L108.2656,230.5 L107.5,227.4375 L104.2188,227.4375 L103.4688,230.5 L101.0313,230.5 L104.375,218.1094 Z " fill="#000000"/><text fill="#000000" font-family="sans-serif" font-size="14" font-style="italic" lengthAdjust="spacing" textLength="60" x="126.25" y="229.8467">Function</text><line style="stroke:#000000;stroke-width:0.5;" x1="51" x2="229" y1="241" y2="241"/><text fill="#000000" font-family="sans-serif" font-size="14" lengthAdjust="spacing" textLength="48" x="56" y="257.9951">y = f(x)</text><line style="stroke:#000000;stroke-width:1.0;" x1="51" x2="229" y1="265.2969" y2="265.2969"/><text fill="#000000" font-family="sans-serif" font-size="14" lengthAdjust="spacing" textLength="46" x="56" y="282.292">STACK</text></g><!--MD5=[1b31271c7496f1793dbf0b219b65afa6]
class proc1--><g id="elem_proc1"><rect codeLine="27" fill="#FFFFFF" height="48" id="proc1" rx="2.5" ry="2.5" style="stroke:#000000;stroke-width:0.5;" width="180" x="402" y="225.5"/><ellipse cx="450.25" cy="241.5" fill="#ADD1B2" rx="11" ry="11" style="stroke:#181818;stroke-width:1.0;"/><path d="M453.2188,247.1406 Q452.6406,247.4375 452,247.5781 Q451.3594,247.7344 450.6563,247.7344 Q448.1563,247.7344 446.8281,246.0938 Q445.5156,244.4375 445.5156,241.3125 Q445.5156,238.1875 446.8281,236.5313 Q448.1563,234.875 450.6563,234.875 Q451.3594,234.875 452,235.0313 Q452.6563,235.1875 453.2188,235.4844 L453.2188,238.2031 Q452.5938,237.625 452,237.3594 Q451.4063,237.0781 450.7813,237.0781 Q449.4375,237.0781 448.75,238.1563 Q448.0625,239.2188 448.0625,241.3125 Q448.0625,243.4063 448.75,244.4844 Q449.4375,245.5469 450.7813,245.5469 Q451.4063,245.5469 452,245.2813 Q452.5938,245 453.2188,244.4219 L453.2188,247.1406 Z " fill="#000000"/><text fill="#000000" font-family="sans-serif" font-size="14" lengthAdjust="spacing" textLength="75" x="470.75" y="246.3467">y = p1(x, t)</text><line style="stroke:#000000;stroke-width:0.5;" x1="403" x2="581" y1="257.5" y2="257.5"/><line style="stroke:#000000;stroke-width:0.5;" x1="403" x2="581" y1="265.5" y2="265.5"/></g><!--MD5=[2ad2613a6508e90e2cfe148b6429c194]
class proc2--><g id="elem_proc2"><rect codeLine="28" fill="#FFFFFF" height="48" id="proc2" rx="2.5" ry="2.5" style="stroke:#000000;stroke-width:0.5;" width="180" x="662" y="225.5"/><ellipse cx="710.25" cy="241.5" fill="#ADD1B2" rx="11" ry="11" style="stroke:#181818;stroke-width:1.0;"/><path d="M713.2188,247.1406 Q712.6406,247.4375 712,247.5781 Q711.3594,247.7344 710.6563,247.7344 Q708.1563,247.7344 706.8281,246.0938 Q705.5156,244.4375 705.5156,241.3125 Q705.5156,238.1875 706.8281,236.5313 Q708.1563,234.875 710.6563,234.875 Q711.3594,234.875 712,235.0313 Q712.6563,235.1875 713.2188,235.4844 L713.2188,238.2031 Q712.5938,237.625 712,237.3594 Q711.4063,237.0781 710.7813,237.0781 Q709.4375,237.0781 708.75,238.1563 Q708.0625,239.2188 708.0625,241.3125 Q708.0625,243.4063 708.75,244.4844 Q709.4375,245.5469 710.7813,245.5469 Q711.4063,245.5469 712,245.2813 Q712.5938,245 713.2188,244.4219 L713.2188,247.1406 Z " fill="#000000"/><text fill="#000000" font-family="sans-serif" font-size="14" lengthAdjust="spacing" textLength="75" x="730.75" y="246.3467">y = p2(x, t)</text><line style="stroke:#000000;stroke-width:0.5;" x1="663" x2="841" y1="257.5" y2="257.5"/><line style="stroke:#000000;stroke-width:0.5;" x1="663" x2="841" y1="265.5" y2="265.5"/></g><!--MD5=[cf863be9d7619689d6bc0c55198650d6]
class func1--><g id="elem_func1"><rect codeLine="30" fill="#FFFFFF" height="48" id="func1" rx="2.5" ry="2.5" style="stroke:#000000;stroke-width:0.5;" width="180" x="7" y="411"/><ellipse cx="64.25" cy="427" fill="#ADD1B2" rx="11" ry="11" style="stroke:#181818;stroke-width:1.0;"/><path d="M67.2188,432.6406 Q66.6406,432.9375 66,433.0781 Q65.3594,433.2344 64.6563,433.2344 Q62.1563,433.2344 60.8281,431.5938 Q59.5156,429.9375 59.5156,426.8125 Q59.5156,423.6875 60.8281,422.0313 Q62.1563,420.375 64.6563,420.375 Q65.3594,420.375 66,420.5313 Q66.6563,420.6875 67.2188,420.9844 L67.2188,423.7031 Q66.5938,423.125 66,422.8594 Q65.4063,422.5781 64.7813,422.5781 Q63.4375,422.5781 62.75,423.6563 Q62.0625,424.7188 62.0625,426.8125 Q62.0625,428.9063 62.75,429.9844 Q63.4375,431.0469 64.7813,431.0469 Q65.4063,431.0469 66,430.7813 Q66.5938,430.5 67.2188,429.9219 L67.2188,432.6406 Z " fill="#000000"/><text fill="#000000" font-family="sans-serif" font-size="14" lengthAdjust="spacing" textLength="57" x="84.75" y="431.8467">y = f1(x)</text><line style="stroke:#000000;stroke-width:0.5;" x1="8" x2="186" y1="443" y2="443"/><line style="stroke:#000000;stroke-width:0.5;" x1="8" x2="186" y1="451" y2="451"/></g><!--MD5=[89835a4e6a1b4227114a85e10a3e5164]
class func2--><g id="elem_func2"><rect codeLine="31" fill="#FFFFFF" height="48" id="func2" rx="2.5" ry="2.5" style="stroke:#000000;stroke-width:0.5;" width="180" x="267" y="411"/><ellipse cx="324.25" cy="427" fill="#ADD1B2" rx="11" ry="11" style="stroke:#181818;stroke-width:1.0;"/><path d="M327.2188,432.6406 Q326.6406,432.9375 326,433.0781 Q325.3594,433.2344 324.6563,433.2344 Q322.1563,433.2344 320.8281,431.5938 Q319.5156,429.9375 319.5156,426.8125 Q319.5156,423.6875 320.8281,422.0313 Q322.1563,420.375 324.6563,420.375 Q325.3594,420.375 326,420.5313 Q326.6563,420.6875 327.2188,420.9844 L327.2188,423.7031 Q326.5938,423.125 326,422.8594 Q325.4063,422.5781 324.7813,422.5781 Q323.4375,422.5781 322.75,423.6563 Q322.0625,424.7188 322.0625,426.8125 Q322.0625,428.9063 322.75,429.9844 Q323.4375,431.0469 324.7813,431.0469 Q325.4063,431.0469 326,430.7813 Q326.5938,430.5 327.2188,429.9219 L327.2188,432.6406 Z " fill="#000000"/><text fill="#000000" font-family="sans-serif" font-size="14" lengthAdjust="spacing" textLength="57" x="344.75" y="431.8467">y = f2(x)</text><line style="stroke:#000000;stroke-width:0.5;" x1="268" x2="446" y1="443" y2="443"/><line style="stroke:#000000;stroke-width:0.5;" x1="268" x2="446" y1="451" y2="451"/></g><!--MD5=[ab318a9c0619e407feecee143b4d3ea1]
reverse link proc to proc--><g id="link_proc_proc"><path codeLine="33" d="M595.33,28.76 C632.1,28.41 662,34.66 662,47.5 C662,61.86 624.63,67.97 582.08,65.84 " fill="none" id="proc-backto-proc" style="stroke:#000000;stroke-width:1.0;"/><polygon fill="none" points="582.08,29.16,588.196,32.9803,594.0747,28.8041,587.9587,24.9838,582.08,29.16" style="stroke:#000000;stroke-width:1.0;"/><text fill="#000000" font-family="sans-serif" font-size="13" lengthAdjust="spacing" textLength="62" x="668" y="44.5669">Recursion</text><text fill="#000000" font-family="sans-serif" font-size="13" lengthAdjust="spacing" textLength="48" x="675" y="59.6997">Order 1</text><text fill="#000000" font-family="sans-serif" font-size="13" lengthAdjust="spacing" textLength="8" x="589.871" y="24.1093">1</text><text fill="#000000" font-family="sans-serif" font-size="13" lengthAdjust="spacing" textLength="23" x="589.8572" y="63.7575">0..*</text></g><!--MD5=[d789609da32ef21d0c578ecebb0b13ac]
reverse link func to func--><g id="link_func_func"><path codeLine="34" d="M243.33,230.76 C280.1,230.41 310,236.66 310,249.5 C310,263.86 272.63,269.97 230.08,267.84 " fill="none" id="func-backto-func" style="stroke:#000000;stroke-width:1.0;"/><polygon fill="none" points="230.08,231.16,236.196,234.9803,242.0747,230.8041,235.9587,226.9838,230.08,231.16" style="stroke:#000000;stroke-width:1.0;"/><text fill="#000000" font-family="sans-serif" font-size="13" lengthAdjust="spacing" textLength="62" x="316" y="246.5669">Recursion</text><text fill="#000000" font-family="sans-serif" font-size="13" lengthAdjust="spacing" textLength="48" x="323" y="261.6997">Order 1</text><text fill="#000000" font-family="sans-serif" font-size="13" lengthAdjust="spacing" textLength="8" x="237.871" y="226.1093">1</text><text fill="#000000" font-family="sans-serif" font-size="13" lengthAdjust="spacing" textLength="23" x="237.8572" y="265.7575">0..*</text></g><!--MD5=[7c0b15c5ccdc8381519d78cc6a7cb0d7]
reverse link proc to func--><g id="link_proc_func"><path codeLine="35" d="M410.97,94.54 C350.11,129.12 267.62,175.99 209.7,208.9 " fill="none" id="proc-backto-func" style="stroke:#000000;stroke-width:1.0;"/><polygon fill="none" points="422.46,88.01,415.2674,87.4933,412.0241,93.9338,419.2166,94.4505,422.46,88.01" style="stroke:#000000;stroke-width:1.0;"/><text fill="#000000" font-family="sans-serif" font-size="13" lengthAdjust="spacing" textLength="8" x="402.7396" y="107.7714">1</text><text fill="#000000" font-family="sans-serif" font-size="13" lengthAdjust="spacing" textLength="23" x="196.3394" y="198.045">0..*</text></g><!--MD5=[f2fd94010d21f0ee28e801aa0425213f]
reverse link proc to proc1--><g id="link_proc_proc1"><path codeLine="36" d="M492,108.08 C492,147.42 492,196.81 492,225.3 " fill="none" id="proc-backto-proc1" style="stroke:#000000;stroke-width:1.0;"/><polygon fill="none" points="485,108.01,492,88.01,499,108.01,485,108.01" style="stroke:#000000;stroke-width:1.0;"/></g><!--MD5=[bc0c050b670a7cdb11905162d2ff6cff]
reverse link proc to proc2--><g id="link_proc_proc2"><path codeLine="37" d="M559.38,100.33 C611.9,140.73 682.33,194.91 721.84,225.3 " fill="none" id="proc-backto-proc2" style="stroke:#000000;stroke-width:1.0;"/><polygon fill="none" points="554.95,105.76,543.37,88.01,563.49,94.66,554.95,105.76" style="stroke:#000000;stroke-width:1.0;"/></g><!--MD5=[3582cb5730ad0f70e9cb3973bc5c7d3f]
reverse link func to func2--><g id="link_func_func2"><path codeLine="38" d="M202.34,303.21 C244.46,338.83 298,384.11 329.77,410.97 " fill="none" id="func-backto-func2" style="stroke:#000000;stroke-width:1.0;"/><polygon fill="none" points="197.57,308.35,186.82,290.09,206.61,297.66,197.57,308.35" style="stroke:#000000;stroke-width:1.0;"/></g><!--MD5=[87638883d5dd00b55a0a93a2e77bc41d]
reverse link func to func1--><g id="link_func_func1"><path codeLine="39" d="M126.04,310.07 C118,344.39 108.35,385.58 102.44,410.77 " fill="none" id="func-backto-func1" style="stroke:#000000;stroke-width:1.0;"/><polygon fill="none" points="119.29,308.19,130.67,290.32,132.92,311.39,119.29,308.19" style="stroke:#000000;stroke-width:1.0;"/></g><!--MD5=[165ccdc86c25f74017a9095c35e86a68]
reverse link proc2 to proc2--><g id="link_proc2_proc2"><path codeLine="40" d="M855.33,230.76 C892.1,230.41 922,236.66 922,249.5 C922,263.86 884.63,269.97 842.08,267.84 " fill="none" id="proc2-backto-proc2" style="stroke:#000000;stroke-width:1.0;"/><polygon fill="none" points="842.08,231.16,848.196,234.9803,854.0747,230.8041,847.9587,226.9838,842.08,231.16" style="stroke:#000000;stroke-width:1.0;"/><text fill="#000000" font-family="sans-serif" font-size="13" lengthAdjust="spacing" textLength="62" x="928" y="246.5669">Recursion</text><text fill="#000000" font-family="sans-serif" font-size="13" lengthAdjust="spacing" textLength="48" x="935" y="261.6997">Order 2</text><text fill="#000000" font-family="sans-serif" font-size="13" lengthAdjust="spacing" textLength="8" x="849.871" y="226.0925">1</text><text fill="#000000" font-family="sans-serif" font-size="13" lengthAdjust="spacing" textLength="23" x="849.8572" y="265.7419">0..*</text></g><!--MD5=[2e41f48d82b5b6b9133099deb13b6bfa]
reverse link func2 to func2--><g id="link_func2_func2"><path codeLine="41" d="M460.33,419.26 C497.1,418.97 527,424.21 527,435 C527,447.06 489.63,452.19 447.08,450.4 " fill="none" id="func2-backto-func2" style="stroke:#000000;stroke-width:1.0;"/><polygon fill="none" points="447.08,419.6,453.1792,423.4471,459.0762,419.2968,452.977,415.4497,447.08,419.6" style="stroke:#000000;stroke-width:1.0;"/><text fill="#000000" font-family="sans-serif" font-size="13" lengthAdjust="spacing" textLength="62" x="533" y="432.0669">Recursion</text><text fill="#000000" font-family="sans-serif" font-size="13" lengthAdjust="spacing" textLength="48" x="540" y="447.1997">Order 2</text><text fill="#000000" font-family="sans-serif" font-size="13" lengthAdjust="spacing" textLength="8" x="454.871" y="414.776">1</text><text fill="#000000" font-family="sans-serif" font-size="13" lengthAdjust="spacing" textLength="23" x="454.8572" y="448.0768">0..*</text></g><rect fill="none" height="23.2813" style="stroke:none;stroke-width:1.0;" width="167" x="411" y="465"/><text fill="#888888" font-family="sans-serif" font-size="10" font-weight="bold" lengthAdjust="spacing" textLength="56" x="447" y="474.2822">Recursion</text><text fill="#888888" font-family="sans-serif" font-size="10" lengthAdjust="spacing" textLength="33" x="506" y="474.2822">Orders</text><text fill="#888888" font-family="sans-serif" font-size="10" lengthAdjust="spacing" textLength="167" x="411" y="485.9229">(C) DSP-Crowd Electronics GmbH</text><!--MD5=[43c959eea5852f2000b9e75c334fb3e2]
@startuml

' skinparam linetype ortho
skinparam minClassWidth 180

skinparam nodesep 80
skinparam ranksep 120

skinparam class {
	BackgroundColor White
	ArrowColor Black
	BorderColor Black
}

abstract class "Process" as proc {
  y = p(x, t)
  - -
  HEAP
}

abstract class "Function" as func {
  y = f(x)
  - -
  STACK
}

class "y = p1(x, t)" as proc1 {}
class "y = p2(x, t)" as proc2 {}

class "y = f1(x)" as func1 {}
class "y = f2(x)" as func2 {}

proc "1" o-d- "0..*" proc : "Recursion\nOrder 1"
func "1" o-d- "0..*" func : "Recursion\nOrder 1"
proc "1" o-d- "0..*" func
proc <|-d- proc1
proc <|-d- proc2
func <|-d- func2
func <|-d- func1
proc2 "1" o-d- "0..*" proc2 : "Recursion\nOrder 2"
func2 "1" o-d- "0..*" func2 : "Recursion\nOrder 2"

footer **Recursion** Orders \n(C) DSP-Crowd Electronics GmbH

@enduml

@startuml

skinparam minClassWidth 180

skinparam nodesep 80
skinparam ranksep 120

skinparam class {
	BackgroundColor White
	ArrowColor Black
	BorderColor Black
}

abstract class "Process" as proc {
  y = p(x, t)
  - -
  HEAP
}

abstract class "Function" as func {
  y = f(x)
  - -
  STACK
}

class "y = p1(x, t)" as proc1 {}
class "y = p2(x, t)" as proc2 {}

class "y = f1(x)" as func1 {}
class "y = f2(x)" as func2 {}

proc "1" o-d- "0..*" proc : "Recursion\nOrder 1"
func "1" o-d- "0..*" func : "Recursion\nOrder 1"
proc "1" o-d- "0..*" func
proc <|-d- proc1
proc <|-d- proc2
func <|-d- func2
func <|-d- func1
proc2 "1" o-d- "0..*" proc2 : "Recursion\nOrder 2"
func2 "1" o-d- "0..*" func2 : "Recursion\nOrder 2"

footer **Recursion** Orders \n(C) DSP-Crowd Electronics GmbH

@enduml

PlantUML version 1.2022.7(Mon Aug 22 19:01:30 CEST 2022)
(GPL source distribution)
Java Runtime: OpenJDK Runtime Environment
JVM: OpenJDK 64-Bit Server VM
Default Encoding: UTF-8
Language: en
Country: US
--></g></svg>