<?xml version="1.0" encoding="us-ascii" standalone="no"?><svg xmlns="http://www.w3.org/2000/svg" xmlns:xlink="http://www.w3.org/1999/xlink" contentStyleType="text/css" height="961px" preserveAspectRatio="none" style="width:823px;height:961px;background:#FFFFFF;" version="1.1" viewBox="0 0 823 961" width="823px" zoomAndPan="magnify"><defs/><g><!--cluster pPc--><g id="cluster_pPc"><rect fill="none" height="420" rx="2.5" ry="2.5" style="stroke:#181818;stroke-width:1.0;" width="810" x="7" y="7"/><rect fill="none" height="10" style="stroke:#181818;stroke-width:1.0;" width="15" x="797" y="12"/><rect fill="none" height="2" style="stroke:#181818;stroke-width:1.0;" width="4" x="795" y="14"/><rect fill="none" height="2" style="stroke:#181818;stroke-width:1.0;" width="4" x="795" y="18"/><text fill="#000000" font-family="sans-serif" font-size="14" font-weight="bold" lengthAdjust="spacing" textLength="21" x="401.5" y="32.9951">PC</text></g><!--cluster pTools--><g id="cluster_pTools"><rect fill="none" height="97" rx="2.5" ry="2.5" style="stroke:#181818;stroke-width:1.0;" width="762" x="31" y="50"/><text fill="#000000" font-family="sans-serif" font-size="14" font-weight="bold" lengthAdjust="spacing" textLength="85" x="369.5" y="64.9951">Your Tools</text></g><!--cluster pNuc--><g id="cluster_pNuc"><rect fill="none" height="449" rx="2.5" ry="2.5" style="stroke:#181818;stroke-width:1.0;" width="620" x="142" y="476"/><rect fill="none" height="10" style="stroke:#181818;stroke-width:1.0;" width="15" x="742" y="481"/><rect fill="none" height="2" style="stroke:#181818;stroke-width:1.0;" width="4" x="740" y="483"/><rect fill="none" height="2" style="stroke:#181818;stroke-width:1.0;" width="4" x="740" y="487"/><text fill="#000000" font-family="sans-serif" font-size="14" font-weight="bold" lengthAdjust="spacing" textLength="63" x="420.5" y="501.9951">NUCLEO</text></g><!--cluster STM32--><g id="cluster_STM32"><rect fill="none" height="281" rx="2.5" ry="2.5" style="stroke:#181818;stroke-width:1.0;" width="572" x="166" y="620"/><rect fill="none" height="10" style="stroke:#181818;stroke-width:1.0;" width="15" x="718" y="625"/><rect fill="none" height="2" style="stroke:#181818;stroke-width:1.0;" width="4" x="716" y="627"/><rect fill="none" height="2" style="stroke:#181818;stroke-width:1.0;" width="4" x="716" y="631"/><text fill="#000000" font-family="sans-serif" font-size="14" font-weight="bold" lengthAdjust="spacing" textLength="53" x="425.5" y="645.9951">STM32</text></g><!--cluster pSysDbg--><g id="cluster_pSysDbg"><rect fill="none" height="113" rx="2.5" ry="2.5" style="stroke:#181818;stroke-width:1.0;" width="285" x="421" y="671"/><path d="M604,671 L604,680.2969 L594,690.2969 L421,690.2969 " fill="none" style="stroke:#181818;stroke-width:1.0;"/><text fill="#000000" font-family="sans-serif" font-size="14" font-weight="bold" lengthAdjust="spacing" textLength="173" x="424" y="684.9951">&#171;SystemDebugging()&#187;</text></g><!--entity pGw--><g id="elem_pGw"><rect fill="#FFA500" height="46.2969" rx="2.5" ry="2.5" style="stroke:#181818;stroke-width:0.5;" width="102" x="414" y="218.5"/><path d="M448,218.5 L448,223.5 L441,230.5 L414,230.5 " fill="none" style="stroke:#181818;stroke-width:0.5;"/><text fill="#000000" font-family="sans-serif" font-size="14" lengthAdjust="spacing" textLength="62" x="429" y="251.4951">CodeOrb</text></g><!--entity pStSw--><g id="elem_pStSw"><rect fill="#F1F1F1" height="62.5938" rx="2.5" ry="2.5" style="stroke:#181818;stroke-width:0.5;" width="171" x="204.5" y="210"/><path d="M261.5,210 L261.5,215 L254.5,222 L204.5,222 " fill="none" style="stroke:#181818;stroke-width:0.5;"/><text fill="#000000" font-family="sans-serif" font-size="14" lengthAdjust="spacing" textLength="131" x="219.5" y="242.9951">STMicroelectronics</text><text fill="#000000" font-family="sans-serif" font-size="14" lengthAdjust="spacing" textLength="60" x="219.5" y="259.292">Software</text></g><!--entity pDrv--><g id="elem_pDrv"><rect fill="#F1F1F1" height="46.2969" rx="2.5" ry="2.5" style="stroke:#181818;stroke-width:0.5;" width="134" x="310" y="365"/><path d="M354.6667,365 L354.6667,370 L347.6667,377 L310,377 " fill="none" style="stroke:#181818;stroke-width:0.5;"/><text fill="#000000" font-family="sans-serif" font-size="14" lengthAdjust="spacing" textLength="94" x="325" y="397.9951">ST-Link Driver</text></g><!--entity pProg--><g id="elem_pProg"><rect fill="#F1F1F1" height="46.2969" rx="2.5" ry="2.5" style="stroke:#181818;stroke-width:0.5;" width="125" x="47.5" y="85"/><path d="M89.1667,85 L89.1667,90 L82.1667,97 L47.5,97 " fill="none" style="stroke:#181818;stroke-width:0.5;"/><text fill="#000000" font-family="sans-serif" font-size="14" lengthAdjust="spacing" textLength="85" x="62.5" y="117.9951">Programmer</text></g><!--entity pDbg--><g id="elem_pDbg"><rect fill="#F1F1F1" height="46.2969" rx="2.5" ry="2.5" style="stroke:#181818;stroke-width:0.5;" width="156" x="208" y="85"/><path d="M260,85 L260,90 L253,97 L208,97 " fill="none" style="stroke:#181818;stroke-width:0.5;"/><text fill="#000000" font-family="sans-serif" font-size="14" lengthAdjust="spacing" textLength="116" x="223" y="117.9951">Debugger (GDB)</text></g><!--entity pTree--><g id="elem_pTree"><rect fill="#F1F1F1" height="46.2969" rx="2.5" ry="2.5" style="stroke:#181818;stroke-width:0.5;" width="132" x="399" y="85"/><path d="M443,85 L443,90 L436,97 L399,97 " fill="none" style="stroke:#181818;stroke-width:0.5;"/><text fill="#000000" font-family="sans-serif" font-size="14" lengthAdjust="spacing" textLength="92" x="414" y="117.9951">Process Tree</text></g><!--entity pLog--><g id="elem_pLog"><rect fill="#F1F1F1" height="46.2969" rx="2.5" ry="2.5" style="stroke:#181818;stroke-width:0.5;" width="65" x="566.5" y="85"/><path d="M588.1667,85 L588.1667,90 L581.1667,97 L566.5,97 " fill="none" style="stroke:#181818;stroke-width:0.5;"/><text fill="#000000" font-family="sans-serif" font-size="14" lengthAdjust="spacing" textLength="25" x="581.5" y="117.9951">Log</text></g><!--entity pCmd--><g id="elem_pCmd"><rect fill="#F1F1F1" height="46.2969" rx="2.5" ry="2.5" style="stroke:#181818;stroke-width:0.5;" width="111" x="666.5" y="85"/><path d="M703.5,85 L703.5,90 L696.5,97 L666.5,97 " fill="none" style="stroke:#181818;stroke-width:0.5;"/><text fill="#000000" font-family="sans-serif" font-size="14" lengthAdjust="spacing" textLength="71" x="681.5" y="117.9951">Command</text></g><!--entity pStLink--><g id="elem_pStLink"><rect fill="#F1F1F1" height="46.2969" rx="2.5" ry="2.5" style="stroke:#181818;stroke-width:0.5;" width="90" x="332" y="511"/><rect fill="#F1F1F1" height="10" style="stroke:#181818;stroke-width:0.5;" width="15" x="402" y="516"/><rect fill="#F1F1F1" height="2" style="stroke:#181818;stroke-width:0.5;" width="4" x="400" y="518"/><rect fill="#F1F1F1" height="2" style="stroke:#181818;stroke-width:0.5;" width="4" x="400" y="522"/><text fill="#000000" font-family="sans-serif" font-size="14" lengthAdjust="spacing" textLength="50" x="347" y="543.9951">ST-Link</text></g><!--entity pHwDbg--><g id="elem_pHwDbg"><rect fill="#F1F1F1" height="62.5938" rx="2.5" ry="2.5" style="stroke:#181818;stroke-width:0.5;" width="211" x="182.5" y="705.5"/><rect fill="#F1F1F1" height="10" style="stroke:#181818;stroke-width:0.5;" width="15" x="373.5" y="710.5"/><rect fill="#F1F1F1" height="2" style="stroke:#181818;stroke-width:0.5;" width="4" x="371.5" y="712.5"/><rect fill="#F1F1F1" height="2" style="stroke:#181818;stroke-width:0.5;" width="4" x="371.5" y="716.5"/><text fill="#000000" font-family="sans-serif" font-size="14" lengthAdjust="spacing" textLength="122" x="197.5" y="738.4951">Programming and</text><text fill="#000000" font-family="sans-serif" font-size="14" lengthAdjust="spacing" textLength="171" x="197.5" y="754.792">Debug Hardware Module</text></g><!--entity pApp--><g id="elem_pApp"><rect fill="#F1F1F1" height="46.2969" rx="2.5" ry="2.5" style="stroke:#181818;stroke-width:0.5;" width="172" x="272" y="839"/><path d="M329.3333,839 L329.3333,844 L322.3333,851 L272,851 " fill="none" style="stroke:#181818;stroke-width:0.5;"/><text fill="#000000" font-family="sans-serif" font-size="14" lengthAdjust="spacing" textLength="132" x="287" y="871.9951">&#171;AppProcessing()&#187;</text></g><!--entity pSwt--><g id="elem_pSwt"><rect fill="#F1F1F1" height="46.2969" rx="2.5" ry="2.5" style="stroke:#181818;stroke-width:0.5;" width="218" x="464" y="714"/><path d="M536.6667,714 L536.6667,719 L529.6667,726 L464,726 " fill="none" style="stroke:#181818;stroke-width:0.5;"/><text fill="#000000" font-family="sans-serif" font-size="14" lengthAdjust="spacing" textLength="178" x="479" y="746.9951">&#171;SingleWireTransfering()&#187;</text></g><!--link pProg to pStSw--><g id="link_pProg_pStSw"><path d="M140.13,131.01 C169.65,152.58 210.065,182.1008 243.125,206.2508 " fill="none" id="pProg-to-pStSw" style="stroke:#181818;stroke-width:1.0;"/><polygon fill="#181818" points="247.97,209.79,243.062,201.2512,243.9325,206.8407,238.343,207.7112,247.97,209.79" style="stroke:#181818;stroke-width:1.0;"/></g><!--link pDbg to pStSw--><g id="link_pDbg_pStSw"><path d="M286.8513,137.0073 C287.5013,158.5073 288.1361,179.4228 288.8761,203.5528 " fill="none" id="pDbg-pStSw" style="stroke:#181818;stroke-width:1.0;"/><polygon fill="#181818" points="286.67,131.01,282.9438,140.1268,286.8211,136.0077,290.9401,139.885,286.67,131.01" style="stroke:#181818;stroke-width:1.0;"/><polygon fill="#181818" points="289.06,209.55,292.7822,200.4316,288.9067,204.5523,284.786,200.6768,289.06,209.55" style="stroke:#181818;stroke-width:1.0;"/></g><!--reverse link pTree to pGw--><g id="link_pTree_pGw"><path d="M465,137.01 C465,161.28 465,194.12 465,218.42 " fill="none" id="pTree-backto-pGw" style="stroke:#181818;stroke-width:1.0;"/><polygon fill="#181818" points="465,131.01,461,140.01,465,136.01,469,140.01,465,131.01" style="stroke:#181818;stroke-width:1.0;"/></g><!--reverse link pLog to pGw--><g id="link_pLog_pGw"><path d="M572.2877,135.2126 C547.5577,159.4826 512.27,194.12 487.5,218.42 " fill="none" id="pLog-backto-pGw" style="stroke:#181818;stroke-width:1.0;"/><polygon fill="#181818" points="576.57,131.01,567.3448,134.4591,573.0014,134.5122,572.9483,140.1688,576.57,131.01" style="stroke:#181818;stroke-width:1.0;"/></g><!--link pCmd to pGw--><g id="link_pCmd_pGw"><path d="M683.6872,134.4456 C671.3972,142.3156 662.29,147.76 649,155 C605.23,178.84 559.1276,200.0366 521.7276,216.3866 " fill="none" id="pCmd-pGw" style="stroke:#181818;stroke-width:1.0;"/><polygon fill="#181818" points="688.74,131.21,679.0037,132.6949,684.5293,133.9063,683.3179,139.4319,688.74,131.21" style="stroke:#181818;stroke-width:1.0;"/><polygon fill="#181818" points="516.23,218.79,526.0787,218.85,520.8113,216.7872,522.8742,211.5199,516.23,218.79" style="stroke:#181818;stroke-width:1.0;"/><text fill="#000000" font-family="sans-serif" font-size="13" lengthAdjust="spacing" textLength="39" x="630" y="176.0669">TCP/IP</text></g><!--link pStSw to pDrv--><g id="link_pStSw_pDrv"><path d="M311.5444,278.2805 C328.1044,305.7905 345.8256,335.2195 360.5856,359.7395 " fill="none" id="pStSw-pDrv" style="stroke:#181818;stroke-width:1.0;"/><polygon fill="#181818" points="308.45,273.14,309.6646,282.9137,311.0287,277.4238,316.5186,278.7878,308.45,273.14" style="stroke:#181818;stroke-width:1.0;"/><polygon fill="#181818" points="363.68,364.88,362.4655,355.1063,361.1014,360.5962,355.6114,359.2321,363.68,364.88" style="stroke:#181818;stroke-width:1.0;"/></g><!--link pGw to pDrv--><g id="link_pGw_pDrv"><path d="M448.3196,269.8848 C431.7396,297.1148 410.0697,332.6848 393.5497,359.8248 " fill="none" id="pGw-pDrv" style="stroke:#181818;stroke-width:1.0;"/><polygon fill="#181818" points="451.44,264.76,443.3429,270.3669,448.8397,269.0306,450.1759,274.5274,451.44,264.76" style="stroke:#181818;stroke-width:1.0;"/><polygon fill="#181818" points="390.43,364.95,398.5263,359.342,393.0297,360.679,391.6927,355.1824,390.43,364.95" style="stroke:#181818;stroke-width:1.0;"/><text fill="#000000" font-family="sans-serif" font-size="13" lengthAdjust="spacing" textLength="55" x="442" y="316.0669">COM1 or</text><text fill="#000000" font-family="sans-serif" font-size="13" lengthAdjust="spacing" textLength="85" x="427" y="331.1997">/dev/ttyACM0</text></g><!--link pStSw to pGw--><!--link pHwDbg to pApp--><g id="link_pHwDbg_pApp"><path d="M308.4478,773.9346 C320.8378,795.7046 331.2429,813.985 342.3829,833.565 " fill="none" id="pHwDbg-pApp" style="stroke:#181818;stroke-width:1.0;"/><polygon fill="#181818" points="305.48,768.72,306.4553,778.5204,307.9532,773.0655,313.4081,774.5634,305.48,768.72" style="stroke:#181818;stroke-width:1.0;"/><polygon fill="#181818" points="345.35,838.78,344.3761,828.9794,342.8774,834.4341,337.4227,832.9355,345.35,838.78" style="stroke:#181818;stroke-width:1.0;"/></g><!--link pSysDbg to pApp--><g id="link_pSysDbg_pApp"><path d="M428.8597,790.1615 C428.5177,791.8387 428.9794,788.8664 428.5221,790.5087 C427.6075,793.7933 426.45,796.9862 425,800 C417.64,815.31 409.2322,824.7956 396.5722,834.9956 " fill="none" id="pSysDbg-pApp" style="stroke:#181818;stroke-width:1.0;"/><polygon fill="#181818" points="429.9643,784.2641,424.3757,792.3738,429.0438,789.1786,432.239,793.8467,429.9643,784.2641" style="stroke:#181818;stroke-width:1.0;"/><polygon fill="#181818" points="391.9,838.76,401.4179,836.2283,395.7935,835.623,396.3988,829.9987,391.9,838.76" style="stroke:#181818;stroke-width:1.0;"/></g><!--link pStLink to pHwDbg--><g id="link_pStLink_pHwDbg"><path d="M364.7102,562.766 C348.7302,598.846 322.0297,659.154 303.9597,699.954 " fill="none" id="pStLink-pHwDbg" style="stroke:#181818;stroke-width:1.0;"/><polygon fill="#181818" points="367.14,557.28,359.838,563.8891,365.1152,561.8517,367.1527,567.1288,367.14,557.28" style="stroke:#181818;stroke-width:1.0;"/><polygon fill="#181818" points="301.53,705.44,308.8319,698.8308,303.5548,700.8683,301.5172,695.5912,301.53,705.44" style="stroke:#181818;stroke-width:1.0;"/><text fill="#000000" font-family="sans-serif" font-size="13" lengthAdjust="spacing" textLength="30" x="354" y="600.0669">SWD</text></g><!--link pStLink to pSwt--><g id="link_pStLink_pSwt"><path d="M406.2962,561.0678 C423.0662,576.1878 441.04,592.87 460,612 C494.24,646.55 527.95,684.2737 549.99,709.4737 " fill="none" id="pStLink-pSwt" style="stroke:#181818;stroke-width:1.0;"/><polygon fill="#181818" points="401.84,557.05,405.8458,566.0474,405.5535,560.3981,411.2028,560.1058,401.84,557.05" style="stroke:#181818;stroke-width:1.0;"/><polygon fill="#181818" points="553.94,713.99,551.0259,704.5821,550.6483,710.2264,545.0041,709.8488,553.94,713.99" style="stroke:#181818;stroke-width:1.0;"/><text fill="#000000" font-family="sans-serif" font-size="13" lengthAdjust="spacing" textLength="51" x="452" y="600.0669">USART2</text></g><!--link pDrv to pStLink--><g id="link_pDrv_pStLink"><path d="M377,417.18 C377,444.17 377,477.45 377,504.55 " fill="none" id="pDrv-pStLink" style="stroke:#181818;stroke-width:1.0;"/><polygon fill="#181818" points="377,411.18,373,420.18,377,416.18,381,420.18,377,411.18" style="stroke:#181818;stroke-width:1.0;"/><polygon fill="#181818" points="377,510.55,381,501.55,377,505.55,373,501.55,377,510.55" style="stroke:#181818;stroke-width:1.0;"/><text fill="#000000" font-family="sans-serif" font-size="13" lengthAdjust="spacing" textLength="28" x="378" y="456.0669">USB</text></g><text fill="#888888" font-family="sans-serif" font-size="10" font-weight="bold" lengthAdjust="spacing" textLength="71" x="300.5" y="939.2822">Processing()</text><text fill="#888888" font-family="sans-serif" font-size="10" lengthAdjust="spacing" textLength="134" x="374.5" y="939.2822">- Debugging STM32 Targets</text><text fill="#888888" font-family="sans-serif" font-size="10" lengthAdjust="spacing" textLength="167" x="321" y="950.9229">(C) DSP-Crowd Electronics GmbH</text><!--SRC=[NLDDR-8m43tZNp7A7lYGidIxqXugX4IJ2bQ24crILQlIGqXCY4hio3P4gEA_Tnmx8VHcptipdddpt0VvaRCo5d41XvnHTIufSA7sdFH19l61mjtFFuGal2Wveqn1u44ieGmI-2Ia9sYYOfOXpVdFZm8YpW_IgHdriIRrTbWU6O7W6PuAAWn3tw-eJxV7BAC21dF_SMWO_ZQxpK-eb109IkqRUBhYIvwPyB9Rr-D54RFK85wH8jA71ZjAnOiDy_OnOxJft4H9xu9ljqLIkXPRWyyh-C45ZarRF8nMUI8uFQ0UWhCyaHiMyfsgOc5R3LLOaGxVNURi0toHdnevV752GgqAkExKflIq232v1Z2YnzOXtGfUSTpE3KUqTEpp0Pp82yP_0uVWr7Qo5jQrT4qRq0tqT5PxrVdUUlKBBR5XuvIUnagTPzxgpcbJNV6spzEKidVJmALh5kVvnLi-hSrypqVZcGwCils-Tun9Ek76A3dB05UtORKtO16BL0iAAvuU3rRNHNLhaiaaF4j52sCdh30OJgTs1MUfjVn4SeUTQ_k-ve96k5Ave-8sfr98lzmyC2jBQyKRAeOrpNHaDTGn3DcNEx7BTo5gFpHMqMUZSEqIasVgFa3uwd-7i4i4NiBPl-XURw3UNUEPcgVHHq9sd2lyOgDHTu3H25nezO9wAH358gCARJpmXk27WUi9NgNmT7Kup8ljWdm1]--></g></svg>