<?xml version="1.0" encoding="UTF-8" standalone="no"?><svg xmlns="http://www.w3.org/2000/svg" xmlns:xlink="http://www.w3.org/1999/xlink" contentStyleType="text/css" height="853px" preserveAspectRatio="none" style="width:671px;height:853px;background:#FFFFFF;" version="1.1" viewBox="0 0 671 853" width="671px" zoomAndPan="magnify"><defs/><g><!--MD5=[b7b14e8444e3c5d78ccf181a2614e889]
cluster pc--><g id="cluster_pc"><rect fill="none" height="345" rx="2.5" ry="2.5" style="stroke:#181818;stroke-width:1.0;" width="560" x="86" y="472"/><rect fill="none" height="10" style="stroke:#181818;stroke-width:1.0;" width="15" x="626" y="477"/><rect fill="none" height="2" style="stroke:#181818;stroke-width:1.0;" width="4" x="624" y="479"/><rect fill="none" height="2" style="stroke:#181818;stroke-width:1.0;" width="4" x="624" y="483"/><text fill="#000000" font-family="sans-serif" font-size="14" font-weight="bold" lengthAdjust="spacing" textLength="21" x="355.5" y="497.9951">PC</text></g><!--MD5=[db06ea8485f93a7679d8389fc74e10fc]
cluster cnvt--><g id="cluster_cnvt"><rect fill="none" height="146" rx="2.5" ry="2.5" style="stroke:#181818;stroke-width:1.0;" width="426" x="7" y="277"/><rect fill="none" height="10" style="stroke:#181818;stroke-width:1.0;" width="15" x="413" y="282"/><rect fill="none" height="2" style="stroke:#181818;stroke-width:1.0;" width="4" x="411" y="284"/><rect fill="none" height="2" style="stroke:#181818;stroke-width:1.0;" width="4" x="411" y="288"/><text fill="#000000" font-family="sans-serif" font-size="14" font-weight="bold" lengthAdjust="spacing" textLength="248" x="96" y="302.9951">Interface Conversion Hardware</text></g><!--MD5=[ac17ae8266a18fcefaa0ab1703f331fa]
cluster trg--><g id="cluster_trg"><rect fill="none" height="221" rx="2.5" ry="2.5" style="stroke:#181818;stroke-width:1.0;" width="479" x="186" y="7"/><rect fill="none" height="10" style="stroke:#181818;stroke-width:1.0;" width="15" x="645" y="12"/><rect fill="none" height="2" style="stroke:#181818;stroke-width:1.0;" width="4" x="643" y="14"/><rect fill="none" height="2" style="stroke:#181818;stroke-width:1.0;" width="4" x="643" y="18"/><text fill="#000000" font-family="sans-serif" font-size="14" font-weight="bold" lengthAdjust="spacing" textLength="196" x="327.5" y="32.9951">Target STM32 with UART</text></g><!--MD5=[5f97cdfbafef6a5cbddfbf6bdd3803d1]
entity gw--><g id="elem_gw"><rect fill="#F1F1F1" height="46.2969" rx="2.5" ry="2.5" style="stroke:#181818;stroke-width:0.5;" width="151" x="269.5" y="515.5"/><rect fill="#F1F1F1" height="10" style="stroke:#181818;stroke-width:0.5;" width="15" x="400.5" y="520.5"/><rect fill="#F1F1F1" height="2" style="stroke:#181818;stroke-width:0.5;" width="4" x="398.5" y="522.5"/><rect fill="#F1F1F1" height="2" style="stroke:#181818;stroke-width:0.5;" width="4" x="398.5" y="526.5"/><text fill="#000000" font-family="sans-serif" font-size="14" lengthAdjust="spacing" textLength="111" x="284.5" y="548.4951">Python Gateway</text></g><!--MD5=[30ba7fb1050e29c0f3290b9e87c281e8]
entity log--><g id="elem_log"><rect fill="#F1F1F1" height="46.2969" rx="2.5" ry="2.5" style="stroke:#181818;stroke-width:0.5;" width="65" x="350.5" y="639.5"/><rect fill="#F1F1F1" height="10" style="stroke:#181818;stroke-width:0.5;" width="15" x="395.5" y="644.5"/><rect fill="#F1F1F1" height="2" style="stroke:#181818;stroke-width:0.5;" width="4" x="393.5" y="646.5"/><rect fill="#F1F1F1" height="2" style="stroke:#181818;stroke-width:0.5;" width="4" x="393.5" y="650.5"/><text fill="#000000" font-family="sans-serif" font-size="14" lengthAdjust="spacing" textLength="25" x="365.5" y="672.4951">Log</text></g><!--MD5=[f04bcface800b3498ac77214835b90cd]
entity cmd--><g id="elem_cmd"><rect fill="#F1F1F1" height="46.2969" rx="2.5" ry="2.5" style="stroke:#181818;stroke-width:0.5;" width="111" x="204.5" y="639.5"/><rect fill="#F1F1F1" height="10" style="stroke:#181818;stroke-width:0.5;" width="15" x="295.5" y="644.5"/><rect fill="#F1F1F1" height="2" style="stroke:#181818;stroke-width:0.5;" width="4" x="293.5" y="646.5"/><rect fill="#F1F1F1" height="2" style="stroke:#181818;stroke-width:0.5;" width="4" x="293.5" y="650.5"/><text fill="#000000" font-family="sans-serif" font-size="14" lengthAdjust="spacing" textLength="71" x="219.5" y="672.4951">Command</text></g><!--MD5=[2d3a5dca07f2dc2995b083b822c2fe99]
entity tree--><g id="elem_tree"><rect fill="#F1F1F1" height="46.2969" rx="2.5" ry="2.5" style="stroke:#181818;stroke-width:0.5;" width="132" x="102" y="515.5"/><rect fill="#F1F1F1" height="10" style="stroke:#181818;stroke-width:0.5;" width="15" x="214" y="520.5"/><rect fill="#F1F1F1" height="2" style="stroke:#181818;stroke-width:0.5;" width="4" x="212" y="522.5"/><rect fill="#F1F1F1" height="2" style="stroke:#181818;stroke-width:0.5;" width="4" x="212" y="526.5"/><text fill="#000000" font-family="sans-serif" font-size="14" lengthAdjust="spacing" textLength="92" x="117" y="548.4951">Process Tree</text></g><!--MD5=[f52e25d223c82e33409769c01e345908]
entity clt1--><g id="elem_clt1"><rect fill="#F1F1F1" height="46.2969" rx="2.5" ry="2.5" style="stroke:#181818;stroke-width:0.5;" width="92" x="210" y="755"/><rect fill="#F1F1F1" height="10" style="stroke:#181818;stroke-width:0.5;" width="15" x="282" y="760"/><rect fill="#F1F1F1" height="2" style="stroke:#181818;stroke-width:0.5;" width="4" x="280" y="762"/><rect fill="#F1F1F1" height="2" style="stroke:#181818;stroke-width:0.5;" width="4" x="280" y="766"/><text fill="#000000" font-family="sans-serif" font-size="14" lengthAdjust="spacing" textLength="52" x="225" y="787.9951">Client 1</text></g><!--MD5=[59b074b7c7cee665a20082138c2c5e65]
entity clt2--><g id="elem_clt2"><rect fill="#F1F1F1" height="46.2969" rx="2.5" ry="2.5" style="stroke:#181818;stroke-width:0.5;" width="92" x="337" y="755"/><rect fill="#F1F1F1" height="10" style="stroke:#181818;stroke-width:0.5;" width="15" x="409" y="760"/><rect fill="#F1F1F1" height="2" style="stroke:#181818;stroke-width:0.5;" width="4" x="407" y="762"/><rect fill="#F1F1F1" height="2" style="stroke:#181818;stroke-width:0.5;" width="4" x="407" y="766"/><text fill="#000000" font-family="sans-serif" font-size="14" lengthAdjust="spacing" textLength="52" x="352" y="787.9951">Client 2</text></g><!--MD5=[1983b3dc8160a4f1776be187275e3e85]
entity dbgPc--><g id="elem_dbgPc"><rect fill="#F1F1F1" height="62.5938" rx="2.5" ry="2.5" style="stroke:#181818;stroke-width:0.5;" width="174" x="456" y="507"/><rect fill="#F1F1F1" height="10" style="stroke:#181818;stroke-width:0.5;" width="15" x="610" y="512"/><rect fill="#F1F1F1" height="2" style="stroke:#181818;stroke-width:0.5;" width="4" x="608" y="514"/><rect fill="#F1F1F1" height="2" style="stroke:#181818;stroke-width:0.5;" width="4" x="608" y="518"/><text fill="#000000" font-family="sans-serif" font-size="14" lengthAdjust="spacing" textLength="115" x="471" y="539.9951">Programmer and</text><text fill="#000000" font-family="sans-serif" font-size="14" lengthAdjust="spacing" textLength="134" x="471" y="556.292">Debugger Software</text></g><!--MD5=[87a198699ea885f3f83ef80574db449e]
entity src--><g id="elem_src"><rect fill="#F1F1F1" height="62.5938" rx="2.5" ry="2.5" style="stroke:#181818;stroke-width:0.5;" width="168" x="459" y="631"/><rect fill="#F1F1F1" height="10" style="stroke:#181818;stroke-width:0.5;" width="15" x="607" y="636"/><rect fill="#F1F1F1" height="2" style="stroke:#181818;stroke-width:0.5;" width="4" x="605" y="638"/><rect fill="#F1F1F1" height="2" style="stroke:#181818;stroke-width:0.5;" width="4" x="605" y="642"/><text fill="#000000" font-family="sans-serif" font-size="14" lengthAdjust="spacing" textLength="128" x="474" y="663.9951">Application Source</text><text fill="#000000" font-family="sans-serif" font-size="14" lengthAdjust="spacing" textLength="93" x="474" y="680.292">Version = ???</text></g><!--MD5=[e51d2e02d70911ef9d671566a8825650]
entity cnvt1--><g id="elem_cnvt1"><rect fill="#F1F1F1" height="95.1875" rx="2.5" ry="2.5" style="stroke:#181818;stroke-width:0.5;" width="180" x="23" y="312"/><rect fill="#F1F1F1" height="10" style="stroke:#181818;stroke-width:0.5;" width="15" x="183" y="317"/><rect fill="#F1F1F1" height="2" style="stroke:#181818;stroke-width:0.5;" width="4" x="181" y="319"/><rect fill="#F1F1F1" height="2" style="stroke:#181818;stroke-width:0.5;" width="4" x="181" y="323"/><text fill="#000000" font-family="sans-serif" font-size="14" lengthAdjust="spacing" textLength="57" x="38" y="344.9951">Optional</text><text fill="#000000" font-family="sans-serif" font-size="14" lengthAdjust="spacing" textLength="103" x="38" y="361.292">Converter from</text><text fill="#000000" font-family="sans-serif" font-size="14" lengthAdjust="spacing" textLength="140" x="38" y="377.5889">Single Wire Interface</text><text fill="#000000" font-family="sans-serif" font-size="14" lengthAdjust="spacing" textLength="56" x="38" y="393.8857">to UART</text></g><!--MD5=[c6edfa9ed2ec04a7f01498661d01e1dd]
entity cnvt2--><g id="elem_cnvt2"><rect fill="#F1F1F1" height="62.5938" rx="2.5" ry="2.5" style="stroke:#181818;stroke-width:0.5;" width="143" x="273.5" y="328"/><rect fill="#F1F1F1" height="10" style="stroke:#181818;stroke-width:0.5;" width="15" x="396.5" y="333"/><rect fill="#F1F1F1" height="2" style="stroke:#181818;stroke-width:0.5;" width="4" x="394.5" y="335"/><rect fill="#F1F1F1" height="2" style="stroke:#181818;stroke-width:0.5;" width="4" x="394.5" y="339"/><text fill="#000000" font-family="sans-serif" font-size="14" lengthAdjust="spacing" textLength="103" x="288.5" y="360.9951">Converter from</text><text fill="#000000" font-family="sans-serif" font-size="14" lengthAdjust="spacing" textLength="89" x="288.5" y="377.292">UART to USB</text></g><!--MD5=[e52efcc15520919272a02ca3c9e88b46]
entity dbg--><g id="elem_dbg"><rect fill="#F1F1F1" height="46.2969" rx="2.5" ry="2.5" style="stroke:#181818;stroke-width:0.5;" width="178" x="228" y="42"/><rect fill="#F1F1F1" height="10" style="stroke:#181818;stroke-width:0.5;" width="15" x="386" y="47"/><rect fill="#F1F1F1" height="2" style="stroke:#181818;stroke-width:0.5;" width="4" x="384" y="49"/><rect fill="#F1F1F1" height="2" style="stroke:#181818;stroke-width:0.5;" width="4" x="384" y="53"/><text fill="#000000" font-family="sans-serif" font-size="14" lengthAdjust="spacing" textLength="138" x="243" y="74.9951">SystemDebugging()</text></g><!--MD5=[0d26103f6ae4a398ce4e5526135633f0]
entity swt--><g id="elem_swt"><rect fill="#F1F1F1" height="46.2969" rx="2.5" ry="2.5" style="stroke:#181818;stroke-width:0.5;" width="200" x="202" y="157.5"/><rect fill="#F1F1F1" height="10" style="stroke:#181818;stroke-width:0.5;" width="15" x="382" y="162.5"/><rect fill="#F1F1F1" height="2" style="stroke:#181818;stroke-width:0.5;" width="4" x="380" y="164.5"/><rect fill="#F1F1F1" height="2" style="stroke:#181818;stroke-width:0.5;" width="4" x="380" y="168.5"/><text fill="#000000" font-family="sans-serif" font-size="14" lengthAdjust="spacing" textLength="160" x="217" y="190.4951">SingleWireTransfering()</text></g><!--MD5=[923757b58457165c7417655251d014c6]
entity segInt--><g id="elem_segInt"><rect fill="#F1F1F1" height="62.5938" rx="2.5" ry="2.5" style="stroke:#181818;stroke-width:0.5;" width="211" x="437.5" y="149"/><rect fill="#F1F1F1" height="10" style="stroke:#181818;stroke-width:0.5;" width="15" x="628.5" y="154"/><rect fill="#F1F1F1" height="2" style="stroke:#181818;stroke-width:0.5;" width="4" x="626.5" y="156"/><rect fill="#F1F1F1" height="2" style="stroke:#181818;stroke-width:0.5;" width="4" x="626.5" y="160"/><text fill="#000000" font-family="sans-serif" font-size="14" lengthAdjust="spacing" textLength="122" x="452.5" y="181.9951">Programming and</text><text fill="#000000" font-family="sans-serif" font-size="14" lengthAdjust="spacing" textLength="171" x="452.5" y="198.292">Debug Hardware Module</text></g><!--MD5=[4541fb81c80c07473fe4b07432ef0971]
entity app--><g id="elem_app"><rect fill="#F1F1F1" height="46.2969" rx="2.5" ry="2.5" style="stroke:#181818;stroke-width:0.5;" width="154" x="461" y="42"/><rect fill="#F1F1F1" height="10" style="stroke:#181818;stroke-width:0.5;" width="15" x="595" y="47"/><rect fill="#F1F1F1" height="2" style="stroke:#181818;stroke-width:0.5;" width="4" x="593" y="49"/><rect fill="#F1F1F1" height="2" style="stroke:#181818;stroke-width:0.5;" width="4" x="593" y="53"/><text fill="#000000" font-family="sans-serif" font-size="14" lengthAdjust="spacing" textLength="114" x="476" y="74.9951">AppProcessing()</text></g><!--MD5=[15155ec5d864f934b0594c432216c008]
entity seg--><g id="elem_seg"><rect fill="#F1F1F1" height="46.2969" rx="2.5" ry="2.5" style="stroke:#181818;stroke-width:0.5;" width="124" x="481" y="336.5"/><rect fill="#F1F1F1" height="10" style="stroke:#181818;stroke-width:0.5;" width="15" x="585" y="341.5"/><rect fill="#F1F1F1" height="2" style="stroke:#181818;stroke-width:0.5;" width="4" x="583" y="343.5"/><rect fill="#F1F1F1" height="2" style="stroke:#181818;stroke-width:0.5;" width="4" x="583" y="347.5"/><text fill="#000000" font-family="sans-serif" font-size="14" lengthAdjust="spacing" textLength="84" x="496" y="369.4951">Segger JLink</text></g><!--MD5=[ab6de111d6336e08ef235f4278402e74]
link dbg to swt--><g id="link_dbg_swt"><path d="M313.4,93.25 C311.05,111.05 307.99,134.21 305.63,152.05 " fill="none" id="dbg-swt" style="stroke:#181818;stroke-width:1.0;"/><polygon fill="#181818" points="304.92,157.4,310.0442,148.9892,305.563,152.4415,302.1107,147.9603,304.92,157.4" style="stroke:#181818;stroke-width:1.0;"/><polygon fill="#181818" points="314.07,88.15,308.922,96.5463,313.4129,93.1066,316.8526,97.5976,314.07,88.15" style="stroke:#181818;stroke-width:1.0;"/></g><!--MD5=[d5c1d369cc9f38319cd8f4273cfdf9ef]
link dbg to app--><g id="link_dbg_app"><path d="M411.46,65 C426.25,65 441.05,65 455.84,65 " fill="none" id="dbg-app" style="stroke:#181818;stroke-width:1.0;"/><polygon fill="#181818" points="460.86,65,451.86,61,455.86,65,451.86,69,460.86,65" style="stroke:#181818;stroke-width:1.0;"/><polygon fill="#181818" points="406.35,65,415.35,69,411.35,65,415.35,61,406.35,65" style="stroke:#181818;stroke-width:1.0;"/></g><!--MD5=[d2b96cfabbc9e562d5db0f52ff7193fa]
link app to segInt--><g id="link_app_segInt"><path d="M539.2,93.19 C539.86,108.24 540.69,127.13 541.41,143.41 " fill="none" id="app-segInt" style="stroke:#181818;stroke-width:1.0;"/><polygon fill="#181818" points="541.65,148.82,545.2348,139.6467,541.4217,143.8252,537.2432,140.0121,541.65,148.82" style="stroke:#181818;stroke-width:1.0;"/><polygon fill="#181818" points="538.98,88.15,535.3964,97.3237,539.209,93.1448,543.388,96.9574,538.98,88.15" style="stroke:#181818;stroke-width:1.0;"/></g><!--MD5=[d4c7ad5e79607a9f2b24acf1ec5a1467]
link gw to dbgPc--><!--MD5=[b577651ec78aaa80747e60e73d4db845]
link swt to segInt--><!--MD5=[91b4fe4f8d785c8a0476d1338f5d12d4]
link swt to cnvt1--><g id="link_swt_cnvt1"><path d="M274.62,207.14 C246.44,233.53 201.81,275.33 166.58,308.32 " fill="none" id="swt-cnvt1" style="stroke:#181818;stroke-width:1.0;"/><polygon fill="#181818" points="162.77,311.89,172.072,308.6539,166.4181,308.4708,166.6013,302.8169,162.77,311.89" style="stroke:#181818;stroke-width:1.0;"/><polygon fill="#181818" points="278.45,203.56,269.148,206.7961,274.8019,206.9792,274.6187,212.6331,278.45,203.56" style="stroke:#181818;stroke-width:1.0;"/><text fill="#000000" font-family="sans-serif" font-size="13" lengthAdjust="spacing" textLength="70" x="230" y="257.0669">Single Wire</text></g><!--MD5=[eb46a0d7354e43d888860593a57af484]
link swt to cnvt2--><g id="link_swt_cnvt2"><path d="M308.57,208.53 C316.01,239.16 328.17,289.2 336.37,322.97 " fill="none" id="swt-cnvt2" style="stroke:#181818;stroke-width:1.0;"/><polygon fill="#181818" points="337.55,327.83,339.3015,318.1381,336.3642,322.9726,331.5297,320.0354,337.55,327.83" style="stroke:#181818;stroke-width:1.0;"/><polygon fill="#181818" points="307.36,203.56,305.6085,213.2519,308.5458,208.4174,313.3803,211.3546,307.36,203.56" style="stroke:#181818;stroke-width:1.0;"/><text fill="#000000" font-family="sans-serif" font-size="13" lengthAdjust="spacing" textLength="34" x="321" y="257.0669">UART</text></g><!--MD5=[e595489f629402abb9e4c7564b5b093a]
link cnvt1 to cnvt2--><g id="link_cnvt1_cnvt2"><path d="M208.24,359.5 C228.13,359.5 248.87,359.5 268,359.5 " fill="none" id="cnvt1-cnvt2" style="stroke:#181818;stroke-width:1.0;"/><polygon fill="#181818" points="273.35,359.5,264.35,355.5,268.35,359.5,264.35,363.5,273.35,359.5" style="stroke:#181818;stroke-width:1.0;"/><polygon fill="#181818" points="203.03,359.5,212.03,363.5,208.03,359.5,212.03,355.5,203.03,359.5" style="stroke:#181818;stroke-width:1.0;"/><text fill="#000000" font-family="sans-serif" font-size="13" lengthAdjust="spacing" textLength="34" x="221.25" y="352.5669">UART</text></g><!--MD5=[d86fa868ca56a9f883dfbbc1f0d3c502]
link cnvt2 to gw--><g id="link_cnvt2_gw"><path d="M345,396.46 C345,430.16 345,479.79 345,510.31 " fill="none" id="cnvt2-gw" style="stroke:#181818;stroke-width:1.0;"/><polygon fill="#181818" points="345,515.41,349,506.41,345,510.41,341,506.41,345,515.41" style="stroke:#181818;stroke-width:1.0;"/><polygon fill="#181818" points="345,391.33,341,400.33,345,396.33,349,400.33,345,391.33" style="stroke:#181818;stroke-width:1.0;"/><text fill="#000000" font-family="sans-serif" font-size="13" lengthAdjust="spacing" textLength="28" x="346" y="452.0669">USB</text></g><!--MD5=[e777db090401823c4530b12cdce241b3]
link segInt to seg--><g id="link_segInt_seg"><path d="M543,217.46 C543,251.16 543,300.79 543,331.31 " fill="none" id="segInt-seg" style="stroke:#181818;stroke-width:1.0;"/><polygon fill="#181818" points="543,336.41,547,327.41,543,331.41,539,327.41,543,336.41" style="stroke:#181818;stroke-width:1.0;"/><polygon fill="#181818" points="543,212.33,539,221.33,543,217.33,547,221.33,543,212.33" style="stroke:#181818;stroke-width:1.0;"/><text fill="#000000" font-family="sans-serif" font-size="13" lengthAdjust="spacing" textLength="33" x="544" y="257.0669">J-Link</text></g><!--MD5=[6456e48545a8235f0e83f22328601c70]
link seg to dbgPc--><g id="link_seg_dbgPc"><path d="M543,387.93 C543,418.47 543,467.96 543,501.58 " fill="none" id="seg-dbgPc" style="stroke:#181818;stroke-width:1.0;"/><polygon fill="#181818" points="543,506.83,547,497.83,543,501.83,539,497.83,543,506.83" style="stroke:#181818;stroke-width:1.0;"/><polygon fill="#181818" points="543,382.56,539,391.56,543,387.56,547,391.56,543,382.56" style="stroke:#181818;stroke-width:1.0;"/><text fill="#000000" font-family="sans-serif" font-size="13" lengthAdjust="spacing" textLength="28" x="544" y="452.0669">USB</text></g><!--MD5=[9cb8829eba5ab32df1373ac9a246c4d8]
reverse link dbgPc to src--><g id="link_dbgPc_src"><path d="M543,575.61 C543,593.13 543,613.97 543,630.72 " fill="none" id="dbgPc-backto-src" style="stroke:#181818;stroke-width:1.0;"/><polygon fill="#181818" points="543,570.29,539,579.29,543,575.29,547,579.29,543,570.29" style="stroke:#181818;stroke-width:1.0;"/></g><!--MD5=[52ebea5a470fc99563748800d815eebe]
link gw to log--><g id="link_gw_log"><path d="M351.88,561.59 C358.24,582.02 367.72,612.44 374.54,634.34 " fill="none" id="gw-to-log" style="stroke:#181818;stroke-width:1.0;"/><polygon fill="#181818" points="376.04,639.16,377.1651,629.3756,374.5446,634.3889,369.5313,631.7683,376.04,639.16" style="stroke:#181818;stroke-width:1.0;"/></g><!--MD5=[deee9649c69160a9137d4d970012c978]
link gw to cmd--><g id="link_gw_cmd"><path d="M326.65,565.84 C312.42,586.26 292.79,614.43 278.53,634.91 " fill="none" id="gw-cmd" style="stroke:#181818;stroke-width:1.0;"/><polygon fill="#181818" points="275.57,639.16,283.9974,634.063,278.4287,635.0578,277.4339,629.4891,275.57,639.16" style="stroke:#181818;stroke-width:1.0;"/><polygon fill="#181818" points="329.61,561.59,321.1826,566.687,326.7513,565.6922,327.7461,571.2609,329.61,561.59" style="stroke:#181818;stroke-width:1.0;"/></g><!--MD5=[8214b23a33166ee041e555d4cb716c18]
reverse link tree to gw--><g id="link_tree_gw"><path d="M239.24,538.5 C249.21,538.5 259.17,538.5 269.14,538.5 " fill="none" id="tree-backto-gw" style="stroke:#181818;stroke-width:1.0;"/><polygon fill="#181818" points="234.03,538.5,243.03,542.5,239.03,538.5,243.03,534.5,234.03,538.5" style="stroke:#181818;stroke-width:1.0;"/></g><!--MD5=[6e6edb31f2d559d69dfe7aa99590a368]
link tree to clt1--><g id="link_tree_clt1"><path d="M166.9,561.75 C166.19,592.72 167.97,649.97 187,694 C196.32,715.57 213.06,735.92 227.72,751.07 " fill="none" id="tree-to-clt1" style="stroke:#181818;stroke-width:1.0;"/><polygon fill="#181818" points="231.39,754.81,227.9287,745.5894,227.8831,751.2461,222.2264,751.2005,231.39,754.81" style="stroke:#181818;stroke-width:1.0;"/></g><!--MD5=[7d7aac495d04fa889efddf75b7c31d16]
link log to clt1--><g id="link_log_clt1"><path d="M358.21,685.65 C337.06,704.56 306.64,731.75 284.48,751.54 " fill="none" id="log-to-clt1" style="stroke:#181818;stroke-width:1.0;"/><polygon fill="#181818" points="280.73,754.9,290.1077,751.8903,284.4599,751.5702,284.7801,745.9224,280.73,754.9" style="stroke:#181818;stroke-width:1.0;"/></g><!--MD5=[c74b56b7e2e50e3893555fe42d203abb]
link log to clt2--><g id="link_log_clt2"><path d="M383,685.65 C383,704.01 383,730.18 383,749.81 " fill="none" id="log-to-clt2" style="stroke:#181818;stroke-width:1.0;"/><polygon fill="#181818" points="383,754.9,387,745.9,383,749.9,379,745.9,383,754.9" style="stroke:#181818;stroke-width:1.0;"/></g><!--MD5=[653056d3fb49bf881001b5380a73cbb5]
link cmd to clt1--><g id="link_cmd_clt1"><path d="M259.04,690.75 C258.41,708.55 257.6,731.71 256.97,749.55 " fill="none" id="cmd-clt1" style="stroke:#181818;stroke-width:1.0;"/><polygon fill="#181818" points="256.78,754.9,261.1122,746.0551,256.9661,749.9035,253.1178,745.7573,256.78,754.9" style="stroke:#181818;stroke-width:1.0;"/><polygon fill="#181818" points="259.22,685.65,254.914,694.5077,259.0487,690.6471,262.9093,694.7818,259.22,685.65" style="stroke:#181818;stroke-width:1.0;"/></g><!--MD5=[9a9a96241a9f27999fb2747dc72b365d]
link cmd to clt2--><g id="link_cmd_clt2"><path d="M287.92,689.26 C308.02,707.81 335.04,732.74 355.13,751.28 " fill="none" id="cmd-clt2" style="stroke:#181818;stroke-width:1.0;"/><polygon fill="#181818" points="359.05,754.9,355.1645,745.85,355.3815,751.5027,349.7288,751.7196,359.05,754.9" style="stroke:#181818;stroke-width:1.0;"/><polygon fill="#181818" points="284.01,685.65,287.9145,694.6918,287.6857,689.0396,293.3379,688.8108,284.01,685.65" style="stroke:#181818;stroke-width:1.0;"/></g><rect fill="none" height="23.2813" style="stroke:none;stroke-width:1.0;" width="333" x="162" y="822"/><text fill="#888888" font-family="sans-serif" font-size="10" font-weight="bold" lengthAdjust="spacing" textLength="71" x="162" y="831.2822">Processing()</text><text fill="#888888" font-family="sans-serif" font-size="10" lengthAdjust="spacing" textLength="256" x="236" y="831.2822">STM32 Targets with UART as communication channel</text><text fill="#888888" font-family="sans-serif" font-size="10" lengthAdjust="spacing" textLength="167" x="245" y="842.9229">(C) DSP-Crowd Electronics GmbH</text><!--MD5=[8baf897ad047a2368acea35154d57586]
@startuml

' skinparam linetype ortho

component PC as pc {
  component "Python Gateway" as gw
  
  component "Log" as log
  component "Command" as cmd
  component "Process Tree" as tree
  
  component "Client 1" as clt1
  component "Client 2" as clt2
  
  component "Programmer and\nDebugger Software" as dbgPc
  component "Application Source\nVersion = ???" as src
}

component "Interface Conversion Hardware" as cnvt {
  component "Optional\nConverter from\nSingle Wire Interface\nto UART" as cnvt1
  component "Converter from\nUART to USB" as cnvt2
}

component "Segger JLink" as seg

component "Target STM32 with UART" as trg {
  component "SystemDebugging()" as dbg
  component "SingleWireTransfering()" as swt
  component "Programming and\nDebug Hardware Module" as segInt
  component "AppProcessing()" as app
}

dbg <- -> swt
dbg <-> app
app <- -> segInt

gw -[hidden]r- dbgPc

swt -[hidden]r- segInt

swt <- -> cnvt1 : Single Wire
swt <- -> cnvt2 : UART

cnvt1 <-> cnvt2 : UART
cnvt2 <- -> gw : USB

segInt <- -> seg : J-Link

seg <- -> dbgPc : USB
dbgPc <- - src

gw - -> log
gw <- -> cmd
tree <- gw

tree - -> clt1
log - -> clt1
log - -> clt2
cmd <- -> clt1
cmd <- -> clt2

footer **Processing()** STM32 Targets with UART as communication channel \n(C) DSP-Crowd Electronics GmbH

@enduml

@startuml


component PC as pc {
  component "Python Gateway" as gw
  
  component "Log" as log
  component "Command" as cmd
  component "Process Tree" as tree
  
  component "Client 1" as clt1
  component "Client 2" as clt2
  
  component "Programmer and\nDebugger Software" as dbgPc
  component "Application Source\nVersion = ???" as src
}

component "Interface Conversion Hardware" as cnvt {
  component "Optional\nConverter from\nSingle Wire Interface\nto UART" as cnvt1
  component "Converter from\nUART to USB" as cnvt2
}

component "Segger JLink" as seg

component "Target STM32 with UART" as trg {
  component "SystemDebugging()" as dbg
  component "SingleWireTransfering()" as swt
  component "Programming and\nDebug Hardware Module" as segInt
  component "AppProcessing()" as app
}

dbg <- -> swt
dbg <-> app
app <- -> segInt

gw -[hidden]r- dbgPc

swt -[hidden]r- segInt

swt <- -> cnvt1 : Single Wire
swt <- -> cnvt2 : UART

cnvt1 <-> cnvt2 : UART
cnvt2 <- -> gw : USB

segInt <- -> seg : J-Link

seg <- -> dbgPc : USB
dbgPc <- - src

gw - -> log
gw <- -> cmd
tree <- gw

tree - -> clt1
log - -> clt1
log - -> clt2
cmd <- -> clt1
cmd <- -> clt2

footer **Processing()** STM32 Targets with UART as communication channel \n(C) DSP-Crowd Electronics GmbH

@enduml

PlantUML version 1.2022.7(Mon Aug 22 19:01:30 CEST 2022)
(GPL source distribution)
Java Runtime: OpenJDK Runtime Environment
JVM: OpenJDK 64-Bit Server VM
Default Encoding: UTF-8
Language: en
Country: US
--></g></svg>