<?xml version="1.0" encoding="UTF-8" standalone="no"?><svg xmlns="http://www.w3.org/2000/svg" xmlns:xlink="http://www.w3.org/1999/xlink" contentStyleType="text/css" height="325px" preserveAspectRatio="none" style="width:461px;height:325px;background:#FFFFFF;" version="1.1" viewBox="0 0 461 325" width="461px" zoomAndPan="magnify"><defs/><g><!--MD5=[b6678c732d1ff6484754a56c6e4a5c5c]
entity fe--><g id="elem_fe"><rect fill="#F1F1F1" height="46.2969" rx="2.5" ry="2.5" style="stroke:#181818;stroke-width:0.5;" width="141" x="178.5" y="111"/><rect fill="#F1F1F1" height="10" style="stroke:#181818;stroke-width:0.5;" width="15" x="299.5" y="116"/><rect fill="#F1F1F1" height="2" style="stroke:#181818;stroke-width:0.5;" width="4" x="297.5" y="118"/><rect fill="#F1F1F1" height="2" style="stroke:#181818;stroke-width:0.5;" width="4" x="297.5" y="122"/><text fill="#000000" font-family="sans-serif" font-size="14" lengthAdjust="spacing" textLength="101" x="193.5" y="143.9951">FileExecuting()</text></g><!--MD5=[8bc8dbe6e7068ed9b419b816a3497cc7]
entity args--><g id="elem_args"><path d="M6,16 C6,6 54,6 54,6 C54,6 102,6 102,16 L102,41.2969 C102,51.2969 54,51.2969 54,51.2969 C54,51.2969 6,51.2969 6,41.2969 L6,16 " fill="#F1F1F1" style="stroke:#181818;stroke-width:0.5;"/><path d="M6,16 C6,26 54,26 54,26 C54,26 102,26 102,16 " fill="none" style="stroke:#181818;stroke-width:0.5;"/><text fill="#000000" font-family="sans-serif" font-size="14" lengthAdjust="spacing" textLength="76" x="16" y="42.9951">Arguments</text></g><!--MD5=[a8b6a60a23690f55464f9a38d4e118dd]
entity env--><g id="elem_env"><path d="M137.5,16 C137.5,6 191,6 191,6 C191,6 244.5,6 244.5,16 L244.5,41.2969 C244.5,51.2969 191,51.2969 191,51.2969 C191,51.2969 137.5,51.2969 137.5,41.2969 L137.5,16 " fill="#F1F1F1" style="stroke:#181818;stroke-width:0.5;"/><path d="M137.5,16 C137.5,26 191,26 191,26 C191,26 244.5,26 244.5,16 " fill="none" style="stroke:#181818;stroke-width:0.5;"/><text fill="#000000" font-family="sans-serif" font-size="14" lengthAdjust="spacing" textLength="87" x="147.5" y="42.9951">Environment</text></g><!--MD5=[993b0c928ba6ce262101733a1e32fb44]
entity stdin--><g id="elem_stdin"><path d="M280,16 C280,6 307,6 307,6 C307,6 334,6 334,16 L334,41.2969 C334,51.2969 307,51.2969 307,51.2969 C307,51.2969 280,51.2969 280,41.2969 L280,16 " fill="#F1F1F1" style="stroke:#181818;stroke-width:0.5;"/><path d="M280,16 C280,26 307,26 307,26 C307,26 334,26 334,16 " fill="none" style="stroke:#181818;stroke-width:0.5;"/><text fill="#000000" font-family="sans-serif" font-size="14" lengthAdjust="spacing" textLength="34" x="290" y="42.9951">stdin</text></g><!--MD5=[b156a0c3afe3b8cd12b1b0590150338e]
entity sig--><g id="elem_sig"><path d="M369.5,16 C369.5,6 404,6 404,6 C404,6 438.5,6 438.5,16 L438.5,41.2969 C438.5,51.2969 404,51.2969 404,51.2969 C404,51.2969 369.5,51.2969 369.5,41.2969 L369.5,16 " fill="#F1F1F1" style="stroke:#181818;stroke-width:0.5;"/><path d="M369.5,16 C369.5,26 404,26 404,26 C404,26 438.5,26 438.5,16 " fill="none" style="stroke:#181818;stroke-width:0.5;"/><text fill="#000000" font-family="sans-serif" font-size="14" lengthAdjust="spacing" textLength="49" x="379.5" y="42.9951">Signals</text></g><!--MD5=[1497b0990dffa0bafef9a9c2e0a36e1d]
entity stdout--><g id="elem_stdout"><path d="M65.5,235.5 C65.5,225.5 98,225.5 98,225.5 C98,225.5 130.5,225.5 130.5,235.5 L130.5,260.7969 C130.5,270.7969 98,270.7969 98,270.7969 C98,270.7969 65.5,270.7969 65.5,260.7969 L65.5,235.5 " fill="#F1F1F1" style="stroke:#181818;stroke-width:0.5;"/><path d="M65.5,235.5 C65.5,245.5 98,245.5 98,245.5 C98,245.5 130.5,245.5 130.5,235.5 " fill="none" style="stroke:#181818;stroke-width:0.5;"/><text fill="#000000" font-family="sans-serif" font-size="14" lengthAdjust="spacing" textLength="45" x="75.5" y="262.4951">stdout</text></g><!--MD5=[a1d03579d2fe78aff98d3f5dfa3c1f01]
entity stderr--><g id="elem_stderr"><path d="M165.5,235.5 C165.5,225.5 196,225.5 196,225.5 C196,225.5 226.5,225.5 226.5,235.5 L226.5,260.7969 C226.5,270.7969 196,270.7969 196,270.7969 C196,270.7969 165.5,270.7969 165.5,260.7969 L165.5,235.5 " fill="#F1F1F1" style="stroke:#181818;stroke-width:0.5;"/><path d="M165.5,235.5 C165.5,245.5 196,245.5 196,245.5 C196,245.5 226.5,245.5 226.5,235.5 " fill="none" style="stroke:#181818;stroke-width:0.5;"/><text fill="#000000" font-family="sans-serif" font-size="14" lengthAdjust="spacing" textLength="41" x="175.5" y="262.4951">stderr</text></g><!--MD5=[46f593762077518cea23f3f20b60a046]
entity states--><g id="elem_states"><path d="M262,227 C262,217 302,217 302,217 C302,217 342,217 342,227 L342,268.5938 C342,278.5938 302,278.5938 302,278.5938 C302,278.5938 262,278.5938 262,268.5938 L262,227 " fill="#F1F1F1" style="stroke:#181818;stroke-width:0.5;"/><path d="M262,227 C262,237 302,237 302,237 C302,237 342,237 342,227 " fill="none" style="stroke:#181818;stroke-width:0.5;"/><text fill="#000000" font-family="sans-serif" font-size="14" lengthAdjust="spacing" textLength="36" x="272" y="253.9951">State</text><text fill="#000000" font-family="sans-serif" font-size="14" lengthAdjust="spacing" textLength="60" x="272" y="270.292">changes</text></g><!--MD5=[50c553e022de818f7a94b1f786d77c82]
entity res--><g id="elem_res"><path d="M377.5,227 C377.5,217 411,217 411,217 C411,217 444.5,217 444.5,227 L444.5,268.5938 C444.5,278.5938 411,278.5938 411,278.5938 C411,278.5938 377.5,278.5938 377.5,268.5938 L377.5,227 " fill="#F1F1F1" style="stroke:#181818;stroke-width:0.5;"/><path d="M377.5,227 C377.5,237 411,237 411,237 C411,237 444.5,237 444.5,227 " fill="none" style="stroke:#181818;stroke-width:0.5;"/><text fill="#000000" font-family="sans-serif" font-size="14" lengthAdjust="spacing" textLength="47" x="387.5" y="253.9951">Return</text><text fill="#000000" font-family="sans-serif" font-size="14" lengthAdjust="spacing" textLength="35" x="387.5" y="270.292">code</text></g><!--MD5=[5ab994b489bff9fc45c07ea9331626fe]
link args to fe--><g id="link_args_fe"><path d="M94.88,51.2 C126.39,67.92 169.97,91.05 202.75,108.45 " fill="none" id="args-to-fe" style="stroke:#181818;stroke-width:1.0;"/><polygon fill="#181818" points="207.5,110.98,201.4255,103.2275,203.0835,108.636,197.6751,110.2939,207.5,110.98" style="stroke:#181818;stroke-width:1.0;"/></g><!--MD5=[f7e1926da4fc3dd16b24ea17d319afd1]
link env to fe--><g id="link_env_fe"><path d="M203.16,51.2 C212.15,67.23 224.44,89.17 234.03,106.28 " fill="none" id="env-to-fe" style="stroke:#181818;stroke-width:1.0;"/><polygon fill="#181818" points="236.66,110.98,235.7477,101.1735,234.2148,106.6187,228.7696,105.0858,236.66,110.98" style="stroke:#181818;stroke-width:1.0;"/></g><!--MD5=[82cbedd498d807a2563b32c056f2014b]
link stdin to fe--><g id="link_stdin_fe"><path d="M294.84,51.2 C285.85,67.23 273.56,89.17 263.97,106.28 " fill="none" id="stdin-to-fe" style="stroke:#181818;stroke-width:1.0;"/><polygon fill="#181818" points="261.34,110.98,269.2304,105.0858,263.7852,106.6187,262.2523,101.1735,261.34,110.98" style="stroke:#181818;stroke-width:1.0;"/></g><!--MD5=[8346752c0e6480126962205204060570]
link sig to fe--><g id="link_sig_fe"><path d="M371.51,51.2 C346.67,67.78 312.39,90.67 286.41,108.02 " fill="none" id="sig-to-fe" style="stroke:#181818;stroke-width:1.0;"/><polygon fill="#181818" points="281.98,110.98,291.6873,109.3159,286.1403,108.2065,287.2497,102.6595,281.98,110.98" style="stroke:#181818;stroke-width:1.0;"/></g><!--MD5=[775a0cf0e33518fc857a317b8d34e955]
link fe to stdout--><g id="link_fe_stdout"><path d="M219.17,157.13 C193.79,175.95 157.4,202.94 131.13,222.43 " fill="none" id="fe-to-stdout" style="stroke:#181818;stroke-width:1.0;"/><polygon fill="#181818" points="127,225.49,136.6124,223.3447,131.017,222.5128,131.8489,216.9175,127,225.49" style="stroke:#181818;stroke-width:1.0;"/></g><!--MD5=[a360f061fb0d36b2cb91d98c2d9a84a6]
link fe to stderr--><g id="link_fe_stderr"><path d="M238.53,157.13 C229.91,175.35 217.66,201.23 208.52,220.54 " fill="none" id="fe-to-stderr" style="stroke:#181818;stroke-width:1.0;"/><polygon fill="#181818" points="206.27,225.3,213.743,218.8848,208.4141,220.7831,206.5159,215.4542,206.27,225.3" style="stroke:#181818;stroke-width:1.0;"/></g><!--MD5=[13fd0e3b0626e61b34a883be5e1b703a]
link fe to states--><g id="link_fe_states"><path d="M259.47,157.13 C266.86,172.74 276.92,193.99 285.39,211.9 " fill="none" id="fe-to-states" style="stroke:#181818;stroke-width:1.0;"/><polygon fill="#181818" points="287.74,216.86,287.4941,207.0142,285.5959,212.3431,280.267,210.4448,287.74,216.86" style="stroke:#181818;stroke-width:1.0;"/></g><!--MD5=[0a44c52a87f97bad7d61388093ca6a07]
link fe to res--><g id="link_fe_res"><path d="M281.01,157.13 C307.44,175.4 345.02,201.39 372.99,220.72 " fill="none" id="fe-to-res" style="stroke:#181818;stroke-width:1.0;"/><polygon fill="#181818" points="377.39,223.76,372.2595,215.353,373.2765,220.9177,367.7118,221.9346,377.39,223.76" style="stroke:#181818;stroke-width:1.0;"/></g><rect fill="#FFFFFF" height="23.2813" style="stroke:none;stroke-width:1.0;" width="180" x="133.75" y="294.5938"/><text fill="#888888" font-family="sans-serif" font-size="10" font-weight="bold" lengthAdjust="spacing" textLength="84" x="133.75" y="303.876">FileExecuting()</text><text fill="#888888" font-family="sans-serif" font-size="10" lengthAdjust="spacing" textLength="93" x="220.75" y="303.876">Inputs and Outputs</text><text fill="#888888" font-family="sans-serif" font-size="10" lengthAdjust="spacing" textLength="167" x="140.25" y="315.5166">(C) DSP-Crowd Electronics GmbH</text><!--MD5=[099b724209ca8a60dc40b656c317e746]
@startuml

skinparam backgroundColor #ffffff

component "FileExecuting()" as fe

database "Arguments" as args
database "Environment" as env
database "stdin" as stdin
database "Signals" as sig

database "stdout" as stdout
database "stderr" as stderr
database "State\nchanges" as states
database "Return\ncode" as res

args - -> fe
env - -> fe
stdin - -> fe
sig - -> fe

fe - -> stdout
fe - -> stderr
fe - -> states
fe - -> res

footer **FileExecuting()** Inputs and Outputs\n(C) DSP-Crowd Electronics GmbH

@enduml

PlantUML version 1.2022.7(Mon Aug 22 19:01:30 CEST 2022)
(GPL source distribution)
Java Runtime: OpenJDK Runtime Environment
JVM: OpenJDK 64-Bit Server VM
Default Encoding: UTF-8
Language: en
Country: US
--></g></svg>