<?xml version="1.0" encoding="UTF-8" standalone="no"?><svg xmlns="http://www.w3.org/2000/svg" xmlns:xlink="http://www.w3.org/1999/xlink" contentStyleType="text/css" height="535px" preserveAspectRatio="none" style="width:428px;height:535px;background:#FFFFFF;" version="1.1" viewBox="0 0 428 535" width="428px" zoomAndPan="magnify"><defs/><g><!--MD5=[24406eec57e465e3cb0a14bb86d552d6]
entity srcClosed--><g id="elem_srcClosed"><path d="M6,73 C6,63 44.5,63 44.5,63 C44.5,63 83,63 83,73 L83,114.5938 C83,124.5938 44.5,124.5938 44.5,124.5938 C44.5,124.5938 6,124.5938 6,114.5938 L6,73 " fill="#F1F1F1" style="stroke:#181818;stroke-width:0.5;"/><path d="M6,73 C6,83 44.5,83 44.5,83 C44.5,83 83,83 83,73 " fill="none" style="stroke:#181818;stroke-width:0.5;"/><text fill="#000000" font-family="sans-serif" font-size="14" font-weight="bold" lengthAdjust="spacing" textLength="54" x="16" y="99.9951">Closed</text><text fill="#000000" font-family="sans-serif" font-size="14" lengthAdjust="spacing" textLength="57" x="16" y="116.292">(default)</text></g><!--MD5=[f8b81691c4d328db26f5451c86adf1a7]
entity srcManual--><g id="elem_srcManual"><path d="M118.5,49 C118.5,39 176.5,39 176.5,39 C176.5,39 234.5,39 234.5,49 L234.5,139.4844 C234.5,149.4844 176.5,149.4844 176.5,149.4844 C176.5,149.4844 118.5,149.4844 118.5,139.4844 L118.5,49 " fill="#F1F1F1" style="stroke:#181818;stroke-width:0.5;"/><path d="M118.5,49 C118.5,59 176.5,59 176.5,59 C176.5,59 234.5,59 234.5,49 " fill="none" style="stroke:#181818;stroke-width:0.5;"/><text fill="#000000" font-family="sans-serif" font-size="14" font-weight="bold" lengthAdjust="spacing" textLength="55" x="128.5" y="75.9951">Manual</text><text fill="#000000" font-family="sans-serif" font-size="14" lengthAdjust="spacing" textLength="96" x="128.5" y="92.292">by Parenting()</text><text fill="#000000" font-family="sans-serif" font-size="14" lengthAdjust="spacing" textLength="4" x="128.5" y="108.5889"> </text><text fill="#000000" font-family="sans-serif" font-size="14" lengthAdjust="spacing" textLength="39" x="128.5" y="124.8857">Using</text><text fill="#000000" font-family="sans-serif" font-size="14" lengthAdjust="spacing" textLength="5" x="128.5" y="141.1826">-</text><text fill="#000000" font-family="sans-serif" font-size="14" font-weight="bold" lengthAdjust="spacing" textLength="51" x="137.5" y="141.1826">send()</text></g><!--MD5=[bd5ec7089d1d03827d31d46402cee15b]
entity srcAuto--><g id="elem_srcAuto"><path d="M269.5,16 C269.5,6 340.5,6 340.5,6 C340.5,6 411.5,6 411.5,16 L411.5,171.6719 C411.5,181.6719 340.5,181.6719 340.5,181.6719 C340.5,181.6719 269.5,181.6719 269.5,171.6719 L269.5,16 " fill="#F1F1F1" style="stroke:#181818;stroke-width:0.5;"/><path d="M269.5,16 C269.5,26 340.5,26 340.5,26 C340.5,26 411.5,26 411.5,16 " fill="none" style="stroke:#181818;stroke-width:0.5;"/><text fill="#000000" font-family="sans-serif" font-size="14" font-weight="bold" lengthAdjust="spacing" textLength="79" x="279.5" y="42.9951">Automatic</text><text fill="#000000" font-family="sans-serif" font-size="14" lengthAdjust="spacing" textLength="121" x="279.5" y="59.292">by FileExecuting()</text><text fill="#000000" font-family="sans-serif" font-size="14" lengthAdjust="spacing" textLength="4" x="279.5" y="75.5889"> </text><text fill="#000000" font-family="sans-serif" font-size="14" lengthAdjust="spacing" textLength="39" x="279.5" y="91.8857">Using</text><text fill="#000000" font-family="sans-serif" font-size="14" font-weight="bold" lengthAdjust="spacing" textLength="44" x="322.5" y="91.8857">(XOR)</text><text fill="#000000" font-family="sans-serif" font-size="14" lengthAdjust="spacing" textLength="122" x="279.5" y="108.1826">- const char *, len</text><text fill="#000000" font-family="sans-serif" font-size="14" lengthAdjust="spacing" textLength="48" x="279.5" y="124.4795">- string</text><text fill="#000000" font-family="sans-serif" font-size="14" lengthAdjust="spacing" textLength="43" x="279.5" y="140.7764">- int fd</text><text fill="#000000" font-family="sans-serif" font-size="14" lengthAdjust="spacing" textLength="98" x="279.5" y="157.0732">- Transfering *</text><text fill="#000000" font-family="sans-serif" font-size="14" lengthAdjust="spacing" textLength="63" x="279.5" y="173.3701">- Pipe&lt;&gt;</text></g><!--MD5=[3456120762da94463d8dc5efe01c0369]
entity srcSel--><g id="elem_srcSel"><rect fill="#F1F1F1" height="46.2969" rx="2.5" ry="2.5" style="stroke:#181818;stroke-width:0.5;" width="183" x="85" y="242"/><rect fill="#F1F1F1" height="10" style="stroke:#181818;stroke-width:0.5;" width="15" x="248" y="247"/><rect fill="#F1F1F1" height="2" style="stroke:#181818;stroke-width:0.5;" width="4" x="246" y="249"/><rect fill="#F1F1F1" height="2" style="stroke:#181818;stroke-width:0.5;" width="4" x="246" y="253"/><text fill="#000000" font-family="sans-serif" font-size="14" lengthAdjust="spacing" textLength="95" x="100" y="274.9951">Source select</text><text fill="#000000" font-family="sans-serif" font-size="14" font-weight="bold" lengthAdjust="spacing" textLength="44" x="199" y="274.9951">(XOR)</text></g><!--MD5=[993b0c928ba6ce262101733a1e32fb44]
entity stdin--><g id="elem_stdin"><path d="M147,358 C147,348 176.5,348 176.5,348 C176.5,348 206,348 206,358 L206,383.2969 C206,393.2969 176.5,393.2969 176.5,393.2969 C176.5,393.2969 147,393.2969 147,383.2969 L147,358 " fill="#F1F1F1" style="stroke:#181818;stroke-width:0.5;"/><path d="M147,358 C147,368 176.5,368 176.5,368 C176.5,368 206,368 206,358 " fill="none" style="stroke:#181818;stroke-width:0.5;"/><text fill="#000000" font-family="sans-serif" font-size="14" font-weight="bold" lengthAdjust="spacing" textLength="39" x="157" y="384.9951">stdin</text></g><!--MD5=[29a92245314e89dcffa71a6273e4e59d]
entity chld--><g id="elem_chld"><rect fill="#F1F1F1" height="46.2969" rx="2.5" ry="2.5" style="stroke:#181818;stroke-width:0.5;" width="141" x="106" y="453"/><rect fill="#F1F1F1" height="10" style="stroke:#181818;stroke-width:0.5;" width="15" x="227" y="458"/><rect fill="#F1F1F1" height="2" style="stroke:#181818;stroke-width:0.5;" width="4" x="225" y="460"/><rect fill="#F1F1F1" height="2" style="stroke:#181818;stroke-width:0.5;" width="4" x="225" y="464"/><text fill="#000000" font-family="sans-serif" font-size="14" lengthAdjust="spacing" textLength="101" x="121" y="485.9951">FileExecuting()</text></g><!--MD5=[30e968402fe009fab28d816588118b2d]
link srcClosed to srcSel--><g id="link_srcClosed_srcSel"><path d="M62.18,125.28 C72.63,142.42 86.52,163.97 100.5,182 C115.85,201.8 135.04,222.47 150.3,238.11 " fill="none" id="srcClosed-to-srcSel" style="stroke:#181818;stroke-width:1.0;"/><polygon fill="#181818" points="154.09,241.98,150.6475,232.7524,150.5904,238.4089,144.9338,238.3518,154.09,241.98" style="stroke:#181818;stroke-width:1.0;"/></g><!--MD5=[41ced35160e65089910d19dd048a9304]
link srcManual to srcSel--><g id="link_srcManual_srcSel"><path d="M176.5,149.4 C176.5,178.47 176.5,213 176.5,236.5 " fill="none" id="srcManual-to-srcSel" style="stroke:#181818;stroke-width:1.0;"/><polygon fill="#181818" points="176.5,241.64,180.5,232.64,176.5,236.64,172.5,232.64,176.5,241.64" style="stroke:#181818;stroke-width:1.0;"/></g><!--MD5=[de78eefd34388ba5c37692e19c3d6a78]
link srcAuto to srcSel--><g id="link_srcAuto_srcSel"><path d="M269.04,168.63 C244.93,193.48 219.58,219.61 201.52,238.22 " fill="none" id="srcAuto-to-srcSel" style="stroke:#181818;stroke-width:1.0;"/><polygon fill="#181818" points="198.01,241.84,207.1515,238.1748,201.4952,238.2548,201.4152,232.5985,198.01,241.84" style="stroke:#181818;stroke-width:1.0;"/></g><!--MD5=[b7abff4a0bc62a8c0a0367c4530d1a55]
link srcSel to stdin--><g id="link_srcSel_stdin"><path d="M176.5,288.2 C176.5,304.14 176.5,325.69 176.5,342.6 " fill="none" id="srcSel-to-stdin" style="stroke:#181818;stroke-width:1.0;"/><polygon fill="#181818" points="176.5,347.69,180.5,338.69,176.5,342.69,172.5,338.69,176.5,347.69" style="stroke:#181818;stroke-width:1.0;"/></g><!--MD5=[f60db7587c50ab456452a8c9903d554b]
link stdin to chld--><g id="link_stdin_chld"><path d="M176.5,393.2 C176.5,409.1 176.5,430.79 176.5,447.84 " fill="none" id="stdin-to-chld" style="stroke:#181818;stroke-width:1.0;"/><polygon fill="#181818" points="176.5,452.98,180.5,443.98,176.5,447.98,172.5,443.98,176.5,452.98" style="stroke:#181818;stroke-width:1.0;"/></g><rect fill="#FFFFFF" height="23.2813" style="stroke:none;stroke-width:1.0;" width="209" x="102.75" y="504.2969"/><text fill="#888888" font-family="sans-serif" font-size="10" font-weight="bold" lengthAdjust="spacing" textLength="84" x="102.75" y="513.5791">FileExecuting()</text><text fill="#888888" font-family="sans-serif" font-size="10" lengthAdjust="spacing" textLength="122" x="189.75" y="513.5791">Source selection for stdin</text><text fill="#888888" font-family="sans-serif" font-size="10" lengthAdjust="spacing" textLength="167" x="123.75" y="525.2197">(C) DSP-Crowd Electronics GmbH</text><!--MD5=[a9140bee29d65686dc8464867bd94f1a]
@startuml

skinparam backgroundColor #ffffff

database "**Closed**\n(default)" as srcClosed
database "**Manual**\nby Parenting()\n\nUsing\n- **send()**" as srcManual
database "**Automatic**\nby FileExecuting()\n\nUsing **(XOR)**\n- const char *, len\n- string\n- int fd\n- Transfering *\n- Pipe<>" as srcAuto
component "Source select **(XOR)**" as srcSel
database "**stdin**" as stdin
component "FileExecuting()" as chld

srcClosed - -> srcSel
srcManual - -> srcSel
srcAuto - -> srcSel
srcSel - -> stdin
stdin - -> chld

footer **FileExecuting()** Source selection for stdin\n(C) DSP-Crowd Electronics GmbH

@enduml

PlantUML version 1.2022.7(Mon Aug 22 19:01:30 CEST 2022)
(GPL source distribution)
Java Runtime: OpenJDK Runtime Environment
JVM: OpenJDK 64-Bit Server VM
Default Encoding: UTF-8
Language: en
Country: US
--></g></svg>