<?xml version="1.0" encoding="UTF-8" standalone="no"?><svg xmlns="http://www.w3.org/2000/svg" xmlns:xlink="http://www.w3.org/1999/xlink" contentStyleType="text/css" height="732px" preserveAspectRatio="none" style="width:629px;height:732px;background:#FFFFFF;" version="1.1" viewBox="0 0 629 732" width="629px" zoomAndPan="magnify"><defs/><g><!--MD5=[29a92245314e89dcffa71a6273e4e59d]
entity chld--><g id="elem_chld"><rect fill="#F1F1F1" height="46.2969" rx="2.5" ry="2.5" style="stroke:#181818;stroke-width:0.5;" width="141" x="221" y="7"/><rect fill="#F1F1F1" height="10" style="stroke:#181818;stroke-width:0.5;" width="15" x="342" y="12"/><rect fill="#F1F1F1" height="2" style="stroke:#181818;stroke-width:0.5;" width="4" x="340" y="14"/><rect fill="#F1F1F1" height="2" style="stroke:#181818;stroke-width:0.5;" width="4" x="340" y="18"/><text fill="#000000" font-family="sans-serif" font-size="14" lengthAdjust="spacing" textLength="101" x="236" y="39.9951">FileExecuting()</text></g><!--MD5=[1497b0990dffa0bafef9a9c2e0a36e1d]
entity stdout--><g id="elem_stdout"><path d="M204,123 C204,113 239.5,113 239.5,113 C239.5,113 275,113 275,123 L275,148.2969 C275,158.2969 239.5,158.2969 239.5,158.2969 C239.5,158.2969 204,158.2969 204,148.2969 L204,123 " fill="#F1F1F1" style="stroke:#181818;stroke-width:0.5;"/><path d="M204,123 C204,133 239.5,133 239.5,133 C239.5,133 275,133 275,123 " fill="none" style="stroke:#181818;stroke-width:0.5;"/><text fill="#000000" font-family="sans-serif" font-size="14" font-weight="bold" lengthAdjust="spacing" textLength="51" x="214" y="149.9951">stdout</text></g><!--MD5=[68d6c9e11440c0cb36bf12fd010cf259]
entity stdout2--><g id="elem_stdout2"><path d="M185,260.5 C185,250.5 217.5,250.5 217.5,250.5 C217.5,250.5 250,250.5 250,260.5 L250,285.7969 C250,295.7969 217.5,295.7969 217.5,295.7969 C217.5,295.7969 185,295.7969 185,285.7969 L185,260.5 " fill="#F1F1F1" style="stroke:#181818;stroke-width:0.5;"/><path d="M185,260.5 C185,270.5 217.5,270.5 217.5,270.5 C217.5,270.5 250,270.5 250,260.5 " fill="none" style="stroke:#181818;stroke-width:0.5;"/><text fill="#000000" font-family="sans-serif" font-size="14" lengthAdjust="spacing" textLength="45" x="195" y="287.4951">stdout</text></g><!--MD5=[a1d03579d2fe78aff98d3f5dfa3c1f01]
entity stderr--><g id="elem_stderr"><path d="M321,123 C321,113 355.5,113 355.5,113 C355.5,113 390,113 390,123 L390,148.2969 C390,158.2969 355.5,158.2969 355.5,158.2969 C355.5,158.2969 321,158.2969 321,148.2969 L321,123 " fill="#F1F1F1" style="stroke:#181818;stroke-width:0.5;"/><path d="M321,123 C321,133 355.5,133 355.5,133 C355.5,133 390,133 390,123 " fill="none" style="stroke:#181818;stroke-width:0.5;"/><text fill="#000000" font-family="sans-serif" font-size="14" font-weight="bold" lengthAdjust="spacing" textLength="49" x="331" y="149.9951">stderr</text></g><!--MD5=[30c5737f54a29d387576e7daf6cda32f]
entity sinkSelStdOut--><g id="elem_sinkSelStdOut"><rect fill="#F1F1F1" height="46.2969" rx="2.5" ry="2.5" style="stroke:#181818;stroke-width:0.5;" width="163" x="117" y="396"/><rect fill="#F1F1F1" height="10" style="stroke:#181818;stroke-width:0.5;" width="15" x="260" y="401"/><rect fill="#F1F1F1" height="2" style="stroke:#181818;stroke-width:0.5;" width="4" x="258" y="403"/><rect fill="#F1F1F1" height="2" style="stroke:#181818;stroke-width:0.5;" width="4" x="258" y="407"/><text fill="#000000" font-family="sans-serif" font-size="14" lengthAdjust="spacing" textLength="75" x="132" y="428.9951">Sink select</text><text fill="#000000" font-family="sans-serif" font-size="14" font-weight="bold" lengthAdjust="spacing" textLength="44" x="211" y="428.9951">(XOR)</text></g><!--MD5=[989b6c13ef7be6e624494bd4b37dc960]
entity sinkSelStdErr--><g id="elem_sinkSelStdErr"><rect fill="#F1F1F1" height="46.2969" rx="2.5" ry="2.5" style="stroke:#181818;stroke-width:0.5;" width="163" x="285" y="250"/><rect fill="#F1F1F1" height="10" style="stroke:#181818;stroke-width:0.5;" width="15" x="428" y="255"/><rect fill="#F1F1F1" height="2" style="stroke:#181818;stroke-width:0.5;" width="4" x="426" y="257"/><rect fill="#F1F1F1" height="2" style="stroke:#181818;stroke-width:0.5;" width="4" x="426" y="261"/><text fill="#000000" font-family="sans-serif" font-size="14" lengthAdjust="spacing" textLength="75" x="300" y="282.9951">Sink select</text><text fill="#000000" font-family="sans-serif" font-size="14" font-weight="bold" lengthAdjust="spacing" textLength="44" x="379" y="282.9951">(XOR)</text></g><!--MD5=[8a3f466a36fbfc8573f585eb70a0c60e]
entity sinkDiscard--><g id="elem_sinkDiscard"><path d="M6,561 C6,551 55.5,551 55.5,551 C55.5,551 105,551 105,561 L105,635.1875 C105,645.1875 55.5,645.1875 55.5,645.1875 C55.5,645.1875 6,645.1875 6,635.1875 L6,561 " fill="#F1F1F1" style="stroke:#181818;stroke-width:0.5;"/><path d="M6,561 C6,571 55.5,571 55.5,571 C55.5,571 105,571 105,561 " fill="none" style="stroke:#181818;stroke-width:0.5;"/><text fill="#000000" font-family="sans-serif" font-size="14" font-weight="bold" lengthAdjust="spacing" textLength="59" x="16" y="587.9951">Discard</text><text fill="#000000" font-family="sans-serif" font-size="14" lengthAdjust="spacing" textLength="79" x="16" y="604.292">by /dev/null</text><text fill="#000000" font-family="sans-serif" font-size="14" lengthAdjust="spacing" textLength="4" x="16" y="620.5889"> </text><text fill="#000000" font-family="sans-serif" font-size="14" lengthAdjust="spacing" textLength="57" x="16" y="636.8857">(default)</text></g><!--MD5=[59642e61d6357be2e59dbbc7fe53e445]
entity sinkManual--><g id="elem_sinkManual"><path d="M140.5,553 C140.5,543 198.5,543 198.5,543 C198.5,543 256.5,543 256.5,553 L256.5,643.4844 C256.5,653.4844 198.5,653.4844 198.5,653.4844 C198.5,653.4844 140.5,653.4844 140.5,643.4844 L140.5,553 " fill="#F1F1F1" style="stroke:#181818;stroke-width:0.5;"/><path d="M140.5,553 C140.5,563 198.5,563 198.5,563 C198.5,563 256.5,563 256.5,553 " fill="none" style="stroke:#181818;stroke-width:0.5;"/><text fill="#000000" font-family="sans-serif" font-size="14" font-weight="bold" lengthAdjust="spacing" textLength="55" x="150.5" y="579.9951">Manual</text><text fill="#000000" font-family="sans-serif" font-size="14" lengthAdjust="spacing" textLength="96" x="150.5" y="596.292">by Parenting()</text><text fill="#000000" font-family="sans-serif" font-size="14" lengthAdjust="spacing" textLength="4" x="150.5" y="612.5889"> </text><text fill="#000000" font-family="sans-serif" font-size="14" lengthAdjust="spacing" textLength="39" x="150.5" y="628.8857">Using</text><text fill="#000000" font-family="sans-serif" font-size="14" lengthAdjust="spacing" textLength="5" x="150.5" y="645.1826">-</text><text fill="#000000" font-family="sans-serif" font-size="14" font-weight="bold" lengthAdjust="spacing" textLength="48" x="159.5" y="645.1826">read()</text></g><!--MD5=[b030851e936646513fd901b234e27503]
entity sinkAuto--><g id="elem_sinkAuto"><path d="M291.5,520 C291.5,510 362.5,510 362.5,510 C362.5,510 433.5,510 433.5,520 L433.5,675.6719 C433.5,685.6719 362.5,685.6719 362.5,685.6719 C362.5,685.6719 291.5,685.6719 291.5,675.6719 L291.5,520 " fill="#F1F1F1" style="stroke:#181818;stroke-width:0.5;"/><path d="M291.5,520 C291.5,530 362.5,530 362.5,530 C362.5,530 433.5,530 433.5,520 " fill="none" style="stroke:#181818;stroke-width:0.5;"/><text fill="#000000" font-family="sans-serif" font-size="14" font-weight="bold" lengthAdjust="spacing" textLength="79" x="301.5" y="546.9951">Automatic</text><text fill="#000000" font-family="sans-serif" font-size="14" lengthAdjust="spacing" textLength="121" x="301.5" y="563.292">by FileExecuting()</text><text fill="#000000" font-family="sans-serif" font-size="14" lengthAdjust="spacing" textLength="4" x="301.5" y="579.5889"> </text><text fill="#000000" font-family="sans-serif" font-size="14" lengthAdjust="spacing" textLength="39" x="301.5" y="595.8857">Using</text><text fill="#000000" font-family="sans-serif" font-size="14" font-weight="bold" lengthAdjust="spacing" textLength="34" x="344.5" y="595.8857">(OR)</text><text fill="#000000" font-family="sans-serif" font-size="14" lengthAdjust="spacing" textLength="122" x="301.5" y="612.1826">- const char *, len</text><text fill="#000000" font-family="sans-serif" font-size="14" lengthAdjust="spacing" textLength="48" x="301.5" y="628.4795">- string</text><text fill="#000000" font-family="sans-serif" font-size="14" lengthAdjust="spacing" textLength="43" x="301.5" y="644.7764">- int fd</text><text fill="#000000" font-family="sans-serif" font-size="14" lengthAdjust="spacing" textLength="98" x="301.5" y="661.0732">- Transfering *</text><text fill="#000000" font-family="sans-serif" font-size="14" lengthAdjust="spacing" textLength="63" x="301.5" y="677.3701">- Pipe&lt;&gt;</text></g><!--MD5=[e2e8d8b1aee690b146c46d5eb1227140]
entity sinkComb--><g id="elem_sinkComb"><path d="M315.5,398 C315.5,388 386.5,388 386.5,388 C386.5,388 457.5,388 457.5,398 L457.5,439.5938 C457.5,449.5938 386.5,449.5938 386.5,449.5938 C386.5,449.5938 315.5,449.5938 315.5,439.5938 L315.5,398 " fill="#F1F1F1" style="stroke:#181818;stroke-width:0.5;"/><path d="M315.5,398 C315.5,408 386.5,408 386.5,408 C386.5,408 457.5,408 457.5,398 " fill="none" style="stroke:#181818;stroke-width:0.5;"/><text fill="#000000" font-family="sans-serif" font-size="14" lengthAdjust="spacing" textLength="122" x="325.5" y="424.9951">- Discard (default)</text><text fill="#000000" font-family="sans-serif" font-size="14" lengthAdjust="spacing" textLength="78" x="325.5" y="441.292">- Automatic</text></g><!--MD5=[5fc4d7451b2c0c6a3295da9a47fb86be]
entity sinkManual2--><g id="elem_sinkManual2"><path d="M483,228 C483,218 547.5,218 547.5,218 C547.5,218 612,218 612,228 L612,318.4844 C612,328.4844 547.5,328.4844 547.5,328.4844 C547.5,328.4844 483,328.4844 483,318.4844 L483,228 " fill="#F1F1F1" style="stroke:#181818;stroke-width:0.5;"/><path d="M483,228 C483,238 547.5,238 547.5,238 C547.5,238 612,238 612,228 " fill="none" style="stroke:#181818;stroke-width:0.5;"/><text fill="#000000" font-family="sans-serif" font-size="14" font-weight="bold" lengthAdjust="spacing" textLength="55" x="493" y="254.9951">Manual</text><text fill="#000000" font-family="sans-serif" font-size="14" lengthAdjust="spacing" textLength="96" x="493" y="271.292">by Parenting()</text><text fill="#000000" font-family="sans-serif" font-size="14" lengthAdjust="spacing" textLength="4" x="493" y="287.5889"> </text><text fill="#000000" font-family="sans-serif" font-size="14" lengthAdjust="spacing" textLength="39" x="493" y="303.8857">Using</text><text fill="#000000" font-family="sans-serif" font-size="14" lengthAdjust="spacing" textLength="5" x="493" y="320.1826">-</text><text fill="#000000" font-family="sans-serif" font-size="14" font-weight="bold" lengthAdjust="spacing" textLength="100" x="502" y="320.1826">stderrRead()</text></g><!--MD5=[243e6572c1ceb9ae2141abc0f41d8ac3]
link chld to stdout--><g id="link_chld_stdout"><path d="M280.34,53.2 C272.27,69.27 261.32,91.06 252.8,108.04 " fill="none" id="chld-to-stdout" style="stroke:#181818;stroke-width:1.0;"/><polygon fill="#181818" points="250.46,112.69,258.0706,106.4387,252.7018,108.2207,250.9198,102.8519,250.46,112.69" style="stroke:#181818;stroke-width:1.0;"/></g><!--MD5=[f60958d407104dfedba117f3a563442b]
link chld to stderr--><g id="link_chld_stderr"><path d="M305.23,53.2 C315.17,69.27 328.64,91.06 339.14,108.04 " fill="none" id="chld-to-stderr" style="stroke:#181818;stroke-width:1.0;"/><polygon fill="#181818" points="342.01,112.69,340.6852,102.9307,339.3831,108.4356,333.8782,107.1336,342.01,112.69" style="stroke:#181818;stroke-width:1.0;"/></g><!--MD5=[be29826f64889c7248ce38accde84e17]
link stdout to stdout2--><g id="link_stdout_stdout2"><path d="M235.97,158.27 C232.13,181.88 226.01,219.59 221.88,245.05 " fill="none" id="stdout-to-stdout2" style="stroke:#181818;stroke-width:1.0;"/><polygon fill="#181818" points="221.03,250.28,226.4203,242.0372,221.8311,245.3446,218.5237,240.7554,221.03,250.28" style="stroke:#181818;stroke-width:1.0;"/></g><!--MD5=[d842f432529a234d514e9095bb7c49e6]
link stdout2 to sinkSelStdOut--><g id="link_stdout2_sinkSelStdOut"><path d="M214.66,295.56 C211.3,320.97 205.73,363.22 202.08,390.84 " fill="none" id="stdout2-to-sinkSelStdOut" style="stroke:#181818;stroke-width:1.0;"/><polygon fill="#181818" points="201.43,395.82,206.578,387.4237,202.0871,390.8634,198.6474,386.3724,201.43,395.82" style="stroke:#181818;stroke-width:1.0;"/></g><!--MD5=[dfc951b12f47a4ccba2716f7be023ea9]
link stderr to sinkSelStdErr--><g id="link_stderr_sinkSelStdErr"><path d="M357.27,158.27 C359.17,181.74 362.21,219.14 364.28,244.59 " fill="none" id="stderr-to-sinkSelStdErr" style="stroke:#181818;stroke-width:1.0;"/><polygon fill="#181818" points="364.7,249.83,367.9674,240.5389,364.3001,244.846,359.9931,241.1787,364.7,249.83" style="stroke:#181818;stroke-width:1.0;"/></g><!--MD5=[00e88d431523a36e939a05e6420ec281]
reverse link stdout2 to sinkSelStdErr--><g id="link_stdout2_sinkSelStdErr"><path d="M255.22,273 C265.03,273 274.84,273 284.65,273 " fill="none" id="stdout2-backto-sinkSelStdErr" style="stroke:#181818;stroke-width:1.0;"/><polygon fill="#181818" points="250.09,273,259.09,277,255.09,273,259.09,269,250.09,273" style="stroke:#181818;stroke-width:1.0;"/></g><!--MD5=[3ca1c063c47b7dbba97a68584ad9d03c]
link sinkSelStdOut to sinkDiscard--><g id="link_sinkSelStdOut_sinkDiscard"><path d="M179.16,442.33 C163.63,460.4 141.37,486.6 122.5,510 C113.04,521.73 103.03,534.52 93.71,546.58 " fill="none" id="sinkSelStdOut-to-sinkDiscard" style="stroke:#181818;stroke-width:1.0;"/><polygon fill="#181818" points="90.58,550.64,99.2371,545.9437,93.6279,546.6763,92.8952,541.0671,90.58,550.64" style="stroke:#181818;stroke-width:1.0;"/></g><!--MD5=[2424b5130b6abbc504ec495093c79d10]
link sinkSelStdOut to sinkManual--><g id="link_sinkSelStdOut_sinkManual"><path d="M198.5,442.06 C198.5,465.81 198.5,504.61 198.5,537.43 " fill="none" id="sinkSelStdOut-to-sinkManual" style="stroke:#181818;stroke-width:1.0;"/><polygon fill="#181818" points="198.5,542.65,202.5,533.65,198.5,537.65,194.5,533.65,198.5,542.65" style="stroke:#181818;stroke-width:1.0;"/></g><!--MD5=[488f8e788fbb6ad875ef5ec8073c06fa]
link sinkSelStdOut to sinkAuto--><g id="link_sinkSelStdOut_sinkAuto"><path d="M218.94,442.06 C236.29,460.78 262.3,488.86 287.44,515.99 " fill="none" id="sinkSelStdOut-to-sinkAuto" style="stroke:#181818;stroke-width:1.0;"/><polygon fill="#181818" points="291.14,519.99,287.9596,510.6688,287.7427,516.3215,282.09,516.1045,291.14,519.99" style="stroke:#181818;stroke-width:1.0;"/></g><!--MD5=[276916a096dee954ff24d4786a0a7f46]
link sinkSelStdErr to sinkManual2--><g id="link_sinkSelStdErr_sinkManual2"><path d="M448.16,273 C457.97,273 467.77,273 477.57,273 " fill="none" id="sinkSelStdErr-to-sinkManual2" style="stroke:#181818;stroke-width:1.0;"/><polygon fill="#181818" points="482.7,273,473.7,269,477.7,273,473.7,277,482.7,273" style="stroke:#181818;stroke-width:1.0;"/></g><!--MD5=[ad232dde3eb4e1482ab049e21cd35ae7]
link sinkSelStdErr to sinkComb--><g id="link_sinkSelStdErr_sinkComb"><path d="M369.58,296.18 C372.78,319.19 377.82,355.49 381.57,382.49 " fill="none" id="sinkSelStdErr-to-sinkComb" style="stroke:#181818;stroke-width:1.0;"/><polygon fill="#181818" points="382.3,387.76,385.0291,378.2968,381.6149,382.8072,377.1045,379.393,382.3,387.76" style="stroke:#181818;stroke-width:1.0;"/></g><rect fill="#FFFFFF" height="23.2813" style="stroke:none;stroke-width:1.0;" width="241" x="187" y="701.6719"/><text fill="#888888" font-family="sans-serif" font-size="10" font-weight="bold" lengthAdjust="spacing" textLength="84" x="187" y="710.9541">FileExecuting()</text><text fill="#888888" font-family="sans-serif" font-size="10" lengthAdjust="spacing" textLength="154" x="274" y="710.9541">Sink selection for stdout / stderr</text><text fill="#888888" font-family="sans-serif" font-size="10" lengthAdjust="spacing" textLength="167" x="224" y="722.5947">(C) DSP-Crowd Electronics GmbH</text><!--MD5=[412e47f0fb56f314050b512ed04de024]
@startuml

skinparam backgroundColor #ffffff

component "FileExecuting()" as chld
database "**stdout**" as stdout
database "stdout" as stdout2
database "**stderr**" as stderr
component "Sink select **(XOR)**" as sinkSelStdOut
component "Sink select **(XOR)**" as sinkSelStdErr
database "**Discard**\nby /dev/null\n\n(default)" as sinkDiscard
database "**Manual**\nby Parenting()\n\nUsing\n- **read()**" as sinkManual
database "**Automatic**\nby FileExecuting()\n\nUsing **(OR)**\n- const char *, len\n- string\n- int fd\n- Transfering *\n- Pipe<>" as sinkAuto
database "- Discard (default)\n- Automatic" as sinkComb
database "**Manual**\nby Parenting()\n\nUsing\n- **stderrRead()**" as sinkManual2

chld - -> stdout
chld - -> stderr
stdout - -> stdout2
stdout2 - -> sinkSelStdOut
stderr - -> sinkSelStdErr
stdout2 <- sinkSelStdErr
sinkSelStdOut - -> sinkDiscard
sinkSelStdOut - -> sinkManual
sinkSelStdOut - -> sinkAuto
sinkSelStdErr -> sinkManual2
sinkSelStdErr - -> sinkComb

footer **FileExecuting()** Sink selection for stdout / stderr\n(C) DSP-Crowd Electronics GmbH

@enduml

PlantUML version 1.2022.7(Mon Aug 22 19:01:30 CEST 2022)
(GPL source distribution)
Java Runtime: OpenJDK Runtime Environment
JVM: OpenJDK 64-Bit Server VM
Default Encoding: UTF-8
Language: en
Country: US
--></g></svg>